<svg xmlns="http://www.w3.org/2000/svg">
<defs>
<font id="DKJambo" horiz-adv-x="575" >
  <font-face 
    font-family="DK Jambo"
    font-weight="400"
    font-stretch="normal"
    units-per-em="1000"
    panose-1="2 0 0 0 0 0 0 0 0 0"
    ascent="800"
    descent="-200"
    x-height="536"
    cap-height="720"
    bbox="-201 -400 1228 1028"
    underline-thickness="50"
    underline-position="-50"
    unicode-range="U+0020-20AC"
  />
<missing-glyph horiz-adv-x="800" 
d="M697 -3v4c-58 0 -203 27 -596 4l-71 -4c0 37 12 46 12 833l46 -3c16 0 49 0 621 -1l61 -4c-34 -527 -8 -826 -2 -825zM101 795c-24 -399 -14 -662 -6 -753c19 0 68 0 604 -2c3 59 9 218 10 750c-54 1 -186 2 -608 5zM101 416c3 64 33 130 85 130c21 0 38 -10 49 -25
c1 25 -2 53 -2 105h53c-27 -227 -23 -294 -12 -355l-50 -5l2 20c-12 -11 -27 -19 -44 -19c-2 0 -14 1 -16 1c-45 18 -66 76 -66 135c0 4 0 9 1 13zM557 256l-63 1c32 341 10 412 -5 456l-3 10l71 -33c-3 -43 -5 -104 -4 -139c14 14 22 22 46 22c126 0 83 -187 83 -312v-10
l-79 9l3 14c22 72 77 259 -6 259c-95 0 -44 -211 -43 -277zM450 245l-8 36c-69 -83 -146 -11 -146 110c0 27 0 123 -13 142c72 10 72 10 72 9c0 -61 -54 -248 33 -248c84 0 39 199 20 255c23 6 45 8 70 8v-15c-5 -65 -11 -145 8 -291zM145 422c-2 -41 1 -120 44 -120
c29 0 33 59 35 85c2 38 -1 121 -40 121c-32 0 -38 -55 -39 -86zM222 148c0 30 23 60 54 60c27 0 44 -22 44 -48c0 -21 -12 -39 -32 -46c-1 0 -12 -5 -16 -5c-19 0 -35 6 -45 24c-2 5 -5 10 -5 15zM344 148c0 30 23 60 54 60c27 0 44 -22 44 -48c0 -21 -12 -39 -32 -46
c-1 0 -12 -5 -16 -5c-19 0 -35 6 -45 24c-2 5 -5 10 -5 15zM476 150c0 30 23 60 54 60c27 0 44 -22 44 -48c0 -21 -12 -39 -32 -46c-1 0 -12 -5 -16 -5c-19 0 -35 6 -45 24c-2 5 -5 10 -5 15z" />
    <glyph glyph-name=".notdef" horiz-adv-x="800" 
d="M697 -3v4c-58 0 -203 27 -596 4l-71 -4c0 37 12 46 12 833l46 -3c16 0 49 0 621 -1l61 -4c-34 -527 -8 -826 -2 -825zM101 795c-24 -399 -14 -662 -6 -753c19 0 68 0 604 -2c3 59 9 218 10 750c-54 1 -186 2 -608 5zM101 416c3 64 33 130 85 130c21 0 38 -10 49 -25
c1 25 -2 53 -2 105h53c-27 -227 -23 -294 -12 -355l-50 -5l2 20c-12 -11 -27 -19 -44 -19c-2 0 -14 1 -16 1c-45 18 -66 76 -66 135c0 4 0 9 1 13zM557 256l-63 1c32 341 10 412 -5 456l-3 10l71 -33c-3 -43 -5 -104 -4 -139c14 14 22 22 46 22c126 0 83 -187 83 -312v-10
l-79 9l3 14c22 72 77 259 -6 259c-95 0 -44 -211 -43 -277zM450 245l-8 36c-69 -83 -146 -11 -146 110c0 27 0 123 -13 142c72 10 72 10 72 9c0 -61 -54 -248 33 -248c84 0 39 199 20 255c23 6 45 8 70 8v-15c-5 -65 -11 -145 8 -291zM145 422c-2 -41 1 -120 44 -120
c29 0 33 59 35 85c2 38 -1 121 -40 121c-32 0 -38 -55 -39 -86zM222 148c0 30 23 60 54 60c27 0 44 -22 44 -48c0 -21 -12 -39 -32 -46c-1 0 -12 -5 -16 -5c-19 0 -35 6 -45 24c-2 5 -5 10 -5 15zM344 148c0 30 23 60 54 60c27 0 44 -22 44 -48c0 -21 -12 -39 -32 -46
c-1 0 -12 -5 -16 -5c-19 0 -35 6 -45 24c-2 5 -5 10 -5 15zM476 150c0 30 23 60 54 60c27 0 44 -22 44 -48c0 -21 -12 -39 -32 -46c-1 0 -12 -5 -16 -5c-19 0 -35 6 -45 24c-2 5 -5 10 -5 15z" />
    <glyph glyph-name="space" unicode=" " horiz-adv-x="300" 
 />
    <glyph glyph-name="exclam" unicode="!" horiz-adv-x="208" 
d="M98 -10c-14 0 -38 24 -38 51c0 31 16 72 40 72c19 0 40 -30 40 -58s-23 -65 -42 -65zM65 197l-28 544c-4 28 -7 58 -7 86c0 12 6 15 15 15c22 0 77 -2 102 -2c2 0 13 -2 16 -3c7 -1 15 -5 15 -14c-56 -583 -56 -619 -56 -626c0 -28 -5 -35 -23 -35c-16 0 -34 4 -34 35z
" />
    <glyph glyph-name="quotedbl" unicode="&#x22;" horiz-adv-x="302" 
d="M234 547l-46 3c4 20 -5 318 -10 318c7 0 82 -9 93 -9c0 0 1 -1 1 -3c0 -29 -38 -251 -38 -302v-7zM86 543l-46 3c4 20 -5 318 -10 318c7 0 82 -9 93 -9c0 0 1 -1 1 -3c0 -29 -38 -251 -38 -302v-7z" />
    <glyph glyph-name="dollar" unicode="$" horiz-adv-x="591" 
d="M212 -49l-49 9c5 4 15 33 27 78c-78 15 -160 62 -160 147c0 62 44 103 106 103c31 0 80 -15 100 -45l22 111l-17 5c-87 24 -173 47 -173 143c0 158 132 218 259 219l17 93l75 -6l-23 -95c62 -13 133 -44 133 -100c0 -54 -37 -99 -94 -99c-28 0 -64 15 -64 46
c0 24 24 35 24 58c0 9 -7 16 -17 21l-42 -176l19 -5c90 -21 189 -45 204 -161c1 -8 2 -17 2 -25c0 -153 -183 -238 -320 -238h-9zM426 196c0 85 -54 121 -120 144l-62 -256c11 -3 22 -4 34 -4c68 0 148 39 148 116zM206 574c0 -53 32 -78 76 -95c12 63 23 122 32 174h-5
c-50 0 -103 -22 -103 -79zM168 165c0 -26 15 -48 37 -63c5 19 9 39 14 61c-14 -8 -32 -8 -51 2z" />
    <glyph glyph-name="quotesingle" unicode="'" horiz-adv-x="154" 
d="M86 547l-46 3c4 20 -5 318 -10 318c7 0 82 -9 93 -9c0 0 1 -1 1 -3c0 -29 -38 -251 -38 -302v-7z" />
    <glyph glyph-name="parenleft" unicode="(" horiz-adv-x="259" 
d="M30 374c0 100 22 390 151 390c8 0 22 -2 22 -17c0 -28 -44 -29 -53 -55c-30 -83 -38 -220 -38 -319c0 -120 -38 -311 109 -338c26 -5 -26 -32 -40 -32c-31 0 -57 23 -80 52c-66 82 -71 205 -71 319z" />
    <glyph glyph-name="parenright" unicode=")" horiz-adv-x="259" 
d="M229 374c0 -114 -5 -237 -71 -319c-23 -29 -49 -52 -80 -52c-14 0 -66 27 -40 32c147 27 109 218 109 338c0 99 -8 236 -38 319c-9 26 -53 27 -53 55c0 15 14 17 22 17c129 0 151 -290 151 -390z" />
    <glyph glyph-name="comma" unicode="," horiz-adv-x="211" 
d="M47 -67c0 2 0 4 1 5c32 25 57 4 73 55c-13 -6 -18 -10 -33 -10c-32 0 -58 29 -58 61c0 33 34 70 69 70c55 0 82 -32 82 -93c0 -56 -64 -95 -118 -95h-2c-5 0 -14 0 -14 7z" />
    <glyph glyph-name="hyphen" unicode="-" horiz-adv-x="489" 
d="M37 285l-7 117c2 -38 369 -20 423 -5l6 -111c-264 31 -380 7 -417 0c-2 0 -4 -1 -5 -1z" />
    <glyph glyph-name="period" unicode="." horiz-adv-x="197" 
d="M30 40c0 37 32 74 75 74c37 0 62 -27 62 -59c0 -27 -18 -49 -45 -57c-2 -1 -17 -7 -19 -7h-4c-27 0 -48 8 -62 30c-3 6 -7 12 -7 19z" />
    <glyph glyph-name="slash" unicode="/" horiz-adv-x="308" 
d="M161 677c4 26 15 90 15 111l6 12h2c6 0 8 -2 14 -2c23 0 46 2 70 2h6c4 -2 4 -3 4 -7c0 -14 -10 -30 -14 -43c-24 -72 -33 -149 -52 -239c-4 -19 -6 -33 -63 -465c0 -18 3 -35 3 -52h-122c14 41 13 85 131 683z" />
    <glyph glyph-name="zero" unicode="0" horiz-adv-x="531" 
d="M34 269c0 6 -4 35 -4 41c1 112 33 283 124 363c203 176 341 -128 345 -245c1 -7 1 -14 1 -22c1 -138 -33 -389 -225 -406c-34 -4 -65 4 -97 18c-30 13 -41 26 -61 52c-51 62 -73 122 -83 199zM260 666c-178 -20 -165 -585 28 -585c79 0 93 179 86 360
c-1 56 -8 220 -114 225z" />
    <glyph glyph-name="one" unicode="1" horiz-adv-x="404" 
d="M192 2v3c13 44 20 84 60 527c20 143 -107 -151 -195 -75c-22 19 -27 54 -27 82c0 62 26 112 85 112h17c46 -18 62 -48 62 -101c11 0 43 109 51 130c7 23 7 50 7 75c2 5 6 9 10 9c29 0 46 4 75 4c6 0 8 -6 8 -11c0 -1 -1 -4 -1 -4c0 -102 -18 -208 -24 -315v-25
c57 -403 55 -407 52 -408c-60 3 -105 -10 -164 -10h-12c-4 1 -4 4 -4 7z" />
    <glyph glyph-name="two" unicode="2" horiz-adv-x="616" 
d="M92 50c0 81 21 160 64 230c8 13 52 73 62 85c16 20 94 112 111 131c32 37 55 81 55 130c0 57 -72 100 -124 100c-102 0 -138 -50 -190 -128c-5 -10 -11 -20 -11 -33c21 23 54 52 89 52c56 0 82 -62 82 -109c0 -38 -26 -84 -65 -95c-9 -3 -24 -3 -35 -3
c-61 0 -100 61 -100 126c0 33 7 58 19 88c28 73 65 124 140 156c158 68 307 -19 307 -201c0 -198 -246 -312 -338 -466l-1 -1c-3 -5 -6 -11 -6 -18c45 47 94 57 163 57c83 0 118 -66 177 -66c10 0 19 7 26 14c21 27 22 59 22 91c0 16 -8 32 -8 43c0 8 10 14 17 14
c23 0 38 -110 38 -125c0 -85 -54 -123 -134 -123c-17 0 -35 1 -51 3c-56 7 -102 33 -161 33c-34 0 -64 -13 -94 -28c-7 -4 -23 -20 -33 -20c-18 0 -21 50 -21 63z" />
    <glyph glyph-name="three" unicode="3" horiz-adv-x="531" 
d="M30 209c0 9 8 106 29 106c16 0 57 -7 57 -55c0 -23 -3 -44 -3 -67c0 -97 35 -152 130 -152c92 0 131 120 131 202c0 68 -37 125 -96 149c-17 5 -18 41 -18 60v10c0 33 110 71 110 142c0 4 -1 13 -1 14c-5 75 -72 96 -132 96c-42 0 -112 -48 -120 -93c0 0 0 -1 2 -3h5
c44 0 73 -47 73 -93c0 -38 -31 -80 -66 -80c-32 0 -72 10 -85 45c-15 40 -12 78 6 119c33 75 93 135 166 160c8 3 22 8 58 8c93 0 203 -62 203 -172c0 -58 -38 -99 -78 -134c-8 -7 -21 -9 -27 -19c81 -30 127 -93 127 -182c0 -31 -12 -62 -24 -90
c-43 -99 -127 -186 -233 -186c-122 0 -214 81 -214 215z" />
    <glyph glyph-name="four" unicode="4" horiz-adv-x="549" 
d="M260 0l1 2c7 29 18 58 24 87c18 78 28 156 28 239c0 14 0 32 -3 47c0 1 -1 2 -2 2c-2 0 -10 1 -11 1c-81 0 -159 -14 -259 -18c-6 0 -8 7 -8 12c0 46 183 469 180 467c50 0 45 -63 29 -101c-44 -104 -107 -241 -160 -338c73 0 156 15 231 35c1 3 1 18 1 21
c0 33 -11 64 -11 97c0 1 0 9 3 9h190c4 0 4 -3 4 -7c0 -1 0 -4 -1 -5c-16 -31 -35 -72 -35 -111c4 0 27 -2 32 -2s26 3 26 -11v-32c0 -4 -6 -9 -8 -9l-61 -5s-2 -2 -2 -3c-1 -1 -3 -9 -3 -12l-18 -308c0 -4 5 -32 5 -35v-6c0 -5 0 -13 -7 -14l-148 -12c-6 0 -17 1 -17 10z
" />
    <glyph glyph-name="five" unicode="5" horiz-adv-x="532" 
d="M30 159c0 69 48 98 109 98c41 0 70 -31 84 -80c22 -77 -66 -109 -66 -111c0 -9 27 -9 57 -9c17 0 33 0 50 2c79 16 94 130 94 197c0 66 -29 122 -99 122c-54 0 -103 -10 -153 -26c-3 0 -10 -1 -12 -1c-26 0 -3 60 -3 75c8 68 -23 291 -23 359c0 10 11 13 20 13
c50 -8 98 -9 148 -9c60 0 93 4 163 16c19 5 75 24 93 24c3 0 5 0 8 -3c0 -13 -60 -277 -60 -300h-45c-3 0 -14 6 -14 40c0 20 2 39 2 60c0 10 -2 56 -2 67c0 4 -5 11 -5 11c-12 0 -22 -7 -32 -9l-16 -3c-50 -8 -100 -16 -153 -2c-3 1 -24 8 -26 8c-4 0 -4 -4 -4 -6
c0 -22 -21 -307 -14 -308c143 120 371 99 371 -125c0 -45 -17 -83 -37 -123c-57 -109 -142 -138 -256 -138c-93 0 -179 57 -179 161z" />
    <glyph glyph-name="six" unicode="6" horiz-adv-x="532" 
d="M30 362c0 171 113 437 275 437c75 0 137 -42 173 -122c0 -2 8 -19 9 -21c3 -9 4 -4 4 -11c0 -20 -57 -36 -68 -36c-32 0 -42 30 -59 58c-21 34 -47 54 -83 54c-147 -15 -194 -230 -196 -376v-13c0 -14 0 -28 5 -42c28 118 126 215 231 216c23 0 45 -6 68 -16
c89 -42 113 -135 113 -242c0 -30 -7 -59 -16 -88c-130 -300 -456 -141 -456 183v19zM162 340c-56 -91 -16 -267 111 -267c4 0 9 1 13 1c77 0 92 87 92 167c0 63 -7 177 -80 177c-41 0 -113 -40 -136 -78z" />
    <glyph glyph-name="seven" unicode="7" horiz-adv-x="534" 
d="M369 4l-191 1c0 13 13 22 17 32c58 150 99 300 132 457c13 63 14 113 14 180c-33 -21 -68 -21 -107 -21c-53 0 -100 38 -134 87c-8 -44 -18 -110 -22 -138c-3 -12 -8 -68 -9 -80c-1 -7 -7 -11 -11 -11c-13 0 -26 5 -26 23v5c31 81 -2 170 -2 250c0 7 4 10 8 10
c78 0 156 -42 237 -42c47 0 163 22 221 34c4 0 8 -4 8 -10v-4c-38 -77 -74 -159 -92 -244c-32 -137 -47 -256 -47 -399c0 -40 4 -81 4 -120v-10z" />
    <glyph glyph-name="eight" unicode="8" horiz-adv-x="490" 
d="M30 215c0 98 51 216 117 279c-26 28 -40 66 -40 109c0 233 347 280 347 41c0 -76 0 -106 -63 -176c-3 -3 31 -46 33 -51c29 -53 36 -89 36 -153c0 -137 -77 -252 -201 -262h-9c-58 0 -130 7 -174 60c-40 47 -46 84 -46 153zM234 427c-309 -103 118 -690 118 -153
c0 96 -14 180 -118 153zM394 638c-5 53 -64 74 -112 74c-46 0 -185 -137 -37 -204c47 -21 150 -45 150 114c0 5 -1 11 -1 16z" />
    <glyph glyph-name="nine" unicode="9" horiz-adv-x="532" 
d="M502 437c0 -171 -113 -437 -275 -437c-75 0 -137 42 -173 122c0 2 -8 19 -9 21c-3 9 -4 4 -4 11c0 20 57 36 68 36c32 0 42 -30 59 -58c21 -34 47 -54 83 -54c147 15 194 230 196 376v13c0 14 0 28 -5 42c-28 -118 -126 -215 -231 -216c-23 0 -45 6 -68 16
c-89 42 -113 135 -113 242c0 30 7 59 16 88c130 300 456 141 456 -183v-19zM370 459c56 91 16 267 -111 267c-4 0 -9 -1 -13 -1c-77 0 -92 -87 -92 -167c0 -63 7 -177 80 -177c41 0 113 40 136 78z" />
    <glyph glyph-name="colon" unicode=":" horiz-adv-x="197" 
d="M30 504c0 37 32 74 75 74c37 0 62 -27 62 -59c0 -27 -18 -49 -45 -57c-2 -1 -17 -7 -19 -7h-4c-27 0 -48 8 -62 30c-3 6 -7 12 -7 19zM30 40c0 37 32 74 75 74c37 0 62 -27 62 -59c0 -27 -18 -49 -45 -57c-2 -1 -17 -7 -19 -7h-4c-27 0 -48 8 -62 30c-3 6 -7 12 -7 19z
" />
    <glyph glyph-name="semicolon" unicode=";" horiz-adv-x="197" 
d="M30 504c0 37 32 74 75 74c37 0 62 -27 62 -59c0 -27 -18 -49 -45 -57c-2 -1 -17 -7 -19 -7h-4c-27 0 -48 8 -62 30c-3 6 -7 12 -7 19zM47 -67c0 2 0 4 1 5c32 25 57 4 73 55c-13 -6 -18 -10 -33 -10c-32 0 -58 29 -58 61c0 33 34 70 69 70c55 0 82 -32 82 -93
c0 -56 -64 -95 -118 -95h-2c-5 0 -14 0 -14 7z" />
    <glyph glyph-name="equal" unicode="=" horiz-adv-x="558" 
d="M30 169l1 91c1 -24 478 -10 491 -10l-7 -82c-247 22 -430 2 -480 2c-2 0 -4 -1 -5 -1zM36 319l1 91c1 -24 478 -10 491 -10l-7 -82c-247 22 -430 2 -480 2c-2 0 -4 -1 -5 -1z" />
    <glyph glyph-name="question" unicode="?" horiz-adv-x="509" 
d="M170 56c0 39 27 76 64 76c23 0 50 -34 50 -59c0 -39 -22 -79 -58 -79c-29 0 -56 31 -56 62zM197 197c0 59 -13 122 15 180c39 97 105 174 105 285c0 60 -40 90 -90 90c-76 0 -140 -57 -140 -145c39 14 96 -20 96 -68c0 -53 -18 -90 -68 -90c-67 0 -85 55 -85 116
c0 26 7 59 17 83c38 94 123 177 235 177c85 0 150 -32 186 -123c7 -16 11 -34 11 -51c0 -134 -141 -236 -217 -340c-25 -35 -31 -94 -35 -137c-14 -18 -27 11 -30 23z" />
    <glyph glyph-name="at" unicode="@" horiz-adv-x="676" 
d="M346 -6c-69 0 -133 19 -194 55c-89 54 -122 175 -122 281c0 132 52 284 151 380c91 89 298 121 389 3c105 -137 128 -557 -117 -557c-35 0 -72 18 -106 43c-31 -40 -73 -57 -120 -57c-46 0 -95 41 -95 96c0 76 62 121 119 148c1 0 2 1 3 1c24 13 49 26 79 29
c5 0 7 23 7 47c0 31 -9 64 -34 81c-17 10 -45 11 -63 2c-22 -9 -65 -31 -65 -63v-3c27 24 53 -15 53 -41c0 -35 -20 -56 -52 -56c-22 0 -39 24 -39 47c0 76 39 136 103 163c22 9 36 14 60 14c74 0 106 -45 106 -125c0 -61 -18 -122 -18 -184c0 -21 4 -87 29 -99
c7 -3 17 -2 24 -2c47 0 85 27 115 64c31 61 35 99 35 169c0 107 -13 200 -93 270c-32 28 -64 43 -105 43h-13c-264 0 -312 -296 -297 -506c12 -174 183 -196 263 -196c62 0 142 27 184 78c13 9 20 32 36 37h7c2 0 7 -8 8 -12v-9c0 -93 -159 -141 -238 -141zM233 284v-3
c0 -19 0 -72 26 -72c15 0 66 19 66 41c0 13 -1 109 -9 109c-43 0 -83 -27 -83 -75z" />
    <glyph glyph-name="A" unicode="A" 
d="M359 269l-154 -20l-63 -257l-112 30c40 85 95 383 84 580l-43 -6l-22 95c0 3 53 12 428 57l16 -76l-62 -13c-2 -72 16 -441 114 -635l-132 -24zM209 589l3 -218c16 -4 112 8 128 10v4c0 73 -5 144 -5 219c-36 0 -82 -7 -115 -12c-2 0 -10 -2 -11 -3z" />
    <glyph glyph-name="B" unicode="B" horiz-adv-x="689" 
d="M33 253c-25 185 175 199 175 57c0 -58 -37 -98 -92 -80c214 -470 662 153 197 118l6 -84l-80 26l-24 367c-22 -1 -74 0 -97 5l7 98c4 9 132 13 160 13c136 0 311 -8 322 -182v-9c0 -113 -149 -130 -176 -146c656 -262 -307 -798 -398 -183zM315 451c83 13 151 46 151 134
v11c-5 71 -126 71 -164 61c-1 -3 -3 -17 13 -206z" />
    <glyph glyph-name="C" unicode="C" horiz-adv-x="642" 
d="M30 313c0 195 142 387 363 387c116 0 214 -41 214 -162c0 -86 -65 -162 -156 -162c-96 0 -136 134 -48 134c52 0 56 -22 63 -74h8c47 0 55 39 55 72c0 76 -61 103 -133 103c-164 0 -227 -172 -227 -301c0 -120 44 -250 204 -250c127 0 127 240 211 174
c7 -10 28 -25 28 -40c-42 -94 -141 -193 -286 -193c-190 0 -296 144 -296 312z" />
    <glyph glyph-name="D" unicode="D" horiz-adv-x="651" 
d="M87 0l-8 113l57 8c3 59 8 445 -13 488h-93l5 83l28 6c111 24 230 50 343 21c130 -33 215 -150 215 -273c0 -289 -214 -451 -489 -451c-7 0 -31 1 -45 5zM224 129h16c195 0 256 215 256 332c0 101 -76 156 -182 156c-34 0 -56 -1 -94 -4v-125c0 -121 1 -234 4 -359z" />
    <glyph glyph-name="E" unicode="E" horiz-adv-x="545" 
d="M30 38c62 185 46 405 31 605l-3 41l-2 31c121 0 236 9 360 28l-8 -119h-9c-73 0 -181 6 -216 -3c-4 -15 -13 -87 -15 -103c-1 -12 -3 -42 -2 -42c79 -23 143 -13 200 6l6 -104c-69 21 -139 9 -201 -7c-22 -43 -6 -182 9 -229h16c85 0 255 14 319 52l-11 -128
c-125 0 -349 -28 -474 -28z" />
    <glyph glyph-name="F" unicode="F" horiz-adv-x="523" 
d="M30 743c12 -1 25 -2 39 -2c137 0 332 54 419 54h5c0 -33 -33 -123 -47 -149c-90 54 -182 32 -258 13c-15 -47 -30 -156 -8 -199c51 -10 120 10 154 30l-10 -150c-50 50 -96 32 -148 25v-21c0 -113 16 -213 70 -324h-170l2 31c15 210 18 494 -48 692z" />
    <glyph glyph-name="G" unicode="G" horiz-adv-x="683" 
d="M32 299c-1 14 -2 29 -2 44c0 186 104 417 335 417c134 0 210 -78 210 -201c0 -78 -43 -165 -137 -165c-56 0 -87 38 -92 85c-3 34 5 75 51 75c64 0 72 -42 61 -96c64 40 27 202 -94 202c-178 0 -217 -216 -205 -345c7 -68 47 -248 154 -248c76 0 99 67 99 127
c0 6 -1 13 -1 19l-131 -9l-20 68l385 82l8 -117l-92 -12c2 -69 20 -187 28 -255l-90 30v147c-18 -87 -102 -150 -196 -150c-175 0 -258 167 -271 302z" />
    <glyph glyph-name="H" unicode="H" horiz-adv-x="551" 
d="M40 -5c63 206 14 505 -10 599l153 -18c-22 -76 -24 -146 -22 -226c20 1 153 -1 189 17c8 22 41 328 10 370h161c-103 -436 -64 -568 -32 -688l-152 -7c6 59 35 146 23 222l-193 -2c-12 -105 -5 -170 36 -262c-56 0 -93 -5 -163 -5z" />
    <glyph glyph-name="I" unicode="I" horiz-adv-x="234" 
d="M30 690l150 30c-21 -4 -32 -620 24 -678l-154 -34c27 53 22 594 -20 682z" />
    <glyph glyph-name="J" unicode="J" horiz-adv-x="551" 
d="M48 200c0 76 32 142 121 142c72 0 127 -47 127 -116c0 -87 -100 -110 -146 -41c-22 -74 43 -136 117 -136c115 0 121 114 121 205c0 83 -19 307 -27 370l-307 -12l-24 94l490 57l1 -117l-55 -9h-3c11 -451 127 -651 -194 -651c-119 0 -221 93 -221 214z" />
    <glyph glyph-name="K" unicode="K" horiz-adv-x="592" 
d="M225 309c-11 13 -24 23 -36 34c-1 -114 -36 -239 20 -344c-59 -1 -119 1 -178 3c79 241 50 497 22 744c-1 12 -3 24 -4 36c54 4 109 5 163 5v-9c-28 -114 -25 -232 -12 -348c55 84 107 168 159 254c24 38 66 71 122 71h12c48 -14 59 -68 64 -111c1 -5 1 -10 1 -15
c0 -51 -28 -109 -88 -109c-42 0 -68 44 -71 82h-4c-71 -38 -96 -129 -128 -200c49 -28 89 -65 130 -103l6 -6l5 -4c85 -83 114 -202 181 -313c61 -100 158 -197 283 -199c52 -1 200 -2 227 69c-209 39 45 174 89 38c21 -67 -60 -118 -133 -140c-71 -21 -145 -28 -219 -26
c-332 11 -435 376 -611 591z" />
    <glyph glyph-name="L" unicode="L" horiz-adv-x="563" 
d="M142 0l-112 718l169 40c-28 -198 -32 -374 -2 -572c21 -140 251 -118 322 2l14 -168z" />
    <glyph glyph-name="M" unicode="M" horiz-adv-x="687" 
d="M199 19l-152 -4c78 584 24 705 -10 781l-7 17l169 -58l118 -463c64 108 128 363 156 484c51 -2 84 4 146 4c-105 -171 -5 -636 38 -724l-172 14c12 52 15 106 15 160c0 84 -9 141 -42 218c-122 -391 -124 -395 -129 -395c-6 0 -8 8 -9 13l-147 369
c-4 -64 -12 -327 26 -416z" />
    <glyph glyph-name="N" unicode="N" horiz-adv-x="587" 
d="M178 76l-148 30c36 156 81 350 56 577h119c29 -121 163 -342 243 -415c0 133 -10 326 -10 456v21c26 5 74 15 107 15c-32 -234 -2 -480 12 -712h-92c-44 65 -281 370 -274 364c-9 -145 -27 -198 -13 -336z" />
    <glyph glyph-name="O" unicode="O" horiz-adv-x="603" 
d="M31 397c10 133 108 273 278 273c201 0 273 -169 262 -318c-10 -133 -97 -268 -273 -268c-8 0 -46 1 -54 1c-156 40 -223 179 -213 312zM176 410c-7 -86 2 -253 143 -253c97 0 112 123 116 180c6 78 -2 254 -132 254c-103 0 -123 -116 -127 -181z" />
    <glyph glyph-name="P" unicode="P" horiz-adv-x="584" 
d="M44 658l-14 66c77 60 528 143 523 -178c-2 -160 -142 -248 -289 -248c-14 0 -27 0 -41 2c-1 -8 -1 -15 -1 -22c0 -83 33 -160 23 -312c-48 7 -97 25 -152 26c65 171 5 456 -13 672zM177 700l42 -326c12 -2 24 -3 35 -3c103 0 168 77 168 181c0 5 -1 11 -1 17
c-8 137 -130 166 -244 131z" />
    <glyph glyph-name="Q" unicode="Q" horiz-adv-x="689" 
d="M86 22l21 62c111 -40 168 -9 181 16c-163 18 -258 120 -258 305c0 182 138 345 303 345c9 0 26 -1 27 -1c422 -19 356 -648 52 -648h-27c-41 0 -86 -14 -97 -59l-2 -4c7 -25 217 -37 236 -37c0 48 14 77 62 77c113 0 81 -152 -30 -152c-110 0 -357 96 -468 96zM353 666
c-271 0 -254 -462 16 -462c268 0 305 462 -16 462z" />
    <glyph glyph-name="R" unicode="R" horiz-adv-x="664" 
d="M209 322c-8 2 -10 -4 -12 -10v-1v-18c0 -70 6 -141 25 -209c12 -25 25 -49 38 -73l-205 4c56 139 44 292 44 439c-1 6 -1 11 -2 17c-9 103 -19 209 -67 302h234c121 0 238 -92 241 -220v-5c0 -94 -81 -164 -163 -196c57 -30 100 -79 141 -128c138 -162 194 -451 445 -473
c63 -2 206 -1 217 87v6c-38 4 -90 21 -90 66v4v3c0 38 44 58 77 50c55 -3 96 -56 96 -109v-4c0 -138 -215 -163 -328 -163h-7c-317 2 -413 351 -576 557c-27 34 -62 70 -108 74zM270 694h-7c-22 -2 -59 3 -66 -25v-281c10 -2 19 -3 29 -3c87 0 161 78 164 168v8
c0 64 -46 133 -114 133h-6z" />
    <glyph glyph-name="S" unicode="S" horiz-adv-x="591" 
d="M30 185c0 62 44 103 106 103c40 0 109 -24 109 -75c0 -44 -36 -69 -77 -48c0 -50 57 -85 110 -85c68 0 148 39 148 116c0 219 -358 110 -358 306c0 159 133 219 261 219c59 0 200 -29 200 -108c0 -54 -37 -99 -94 -99c-28 0 -64 15 -64 46c0 24 24 35 24 58
c0 29 -69 35 -86 35c-50 0 -103 -22 -103 -79c0 -168 326 -58 353 -277c1 -8 2 -17 2 -25c0 -153 -183 -238 -320 -238c-87 0 -211 47 -211 151z" />
    <glyph glyph-name="T" unicode="T" horiz-adv-x="656" 
d="M240 605l-195 -22c-15 61 -15 89 -15 145c102 -23 592 22 590 45l6 -103c-69 -12 -195 -23 -254 -44c0 -13 -1 -28 -1 -44c0 -153 19 -439 81 -557h-154c-4 154 12 417 -58 580z" />
    <glyph glyph-name="U" unicode="U" horiz-adv-x="577" 
d="M30 692l149 21c-3 -112 -132 -475 94 -475c213 0 124 395 81 501c62 13 128 16 191 16c-6 -215 56 -584 -256 -584c-163 0 -235 118 -239 245c-2 43 14 240 -20 276z" />
    <glyph glyph-name="V" unicode="V" horiz-adv-x="610" 
d="M30 647c63 10 129 20 196 22c2 -181 29 -355 75 -527c41 159 96 301 96 467c0 39 0 77 -13 115c63 4 125 6 196 6c-86 -223 -192 -435 -192 -680v-10l-169 -32c0 178 -69 499 -189 639z" />
    <glyph glyph-name="W" unicode="W" horiz-adv-x="781" 
d="M421 6l-116 342l-63 -337l-133 -12c58 140 -66 731 -79 776l174 -18c-9 -27 -46 -45 0 -495l58 239l4 4c4 4 83 8 111 9l91 -304c122 411 89 432 89 474l194 -37c-228 -454 -225 -650 -225 -650c-26 0 -100 4 -105 9z" />
    <glyph glyph-name="X" unicode="X" horiz-adv-x="815" 
d="M634 729c-25 -19 -146 -208 -258 -405c54 -167 321 -425 335 -164c-46 7 -100 33 -100 82c0 3 0 6 1 10c7 53 44 64 87 66h5c75 0 87 -81 77 -142c-52 -332 -379 -148 -459 45c-73 -144 -81 -161 -92 -187l-143 42c85 84 128 147 182 230c-63 112 -184 313 -239 419
l138 37c21 -84 112 -280 158 -362c57 111 104 222 148 324c55 4 108 5 160 5z" />
    <glyph glyph-name="Y" unicode="Y" horiz-adv-x="595" 
d="M30 158c0 74 20 113 89 113c60 0 95 -39 95 -112c0 -76 -58 -68 -65 -86c171 -123 151 145 -79 605l176 22v-1c-2 -14 -17 -137 79 -435c54 165 93 283 101 496l139 13l-162 -553c-37 -129 -99 -241 -222 -241c-84 0 -151 79 -151 179z" />
    <glyph glyph-name="Z" unicode="Z" horiz-adv-x="611" 
d="M43 128c115 67 186 192 328 444l-236 -34l-10 -188l-42 -6s-19 93 -46 314c145 -19 431 42 515 42c7 0 -23 -98 -369 -542l288 -14l8 156c3 0 64 -7 68 -8l34 -252c-124 -64 -322 19 -550 32c-1 10 8 24 12 56z" />
    <glyph glyph-name="backslash" unicode="\" horiz-adv-x="308" 
d="M147 677c118 -598 117 -642 131 -683h-122c0 17 3 34 3 52c-57 432 -59 446 -63 465c-19 90 -28 167 -52 239c-4 13 -14 29 -14 43c0 4 0 5 4 7h6c24 0 47 -2 70 -2c6 0 8 2 14 2h2l6 -12c0 -21 11 -85 15 -111z" />
    <glyph glyph-name="underscore" unicode="_" horiz-adv-x="631" 
d="M30 17v23c1 4 4 6 6 7c14 0 28 0 555 -2c10 -1 10 -31 9 -35c0 -6 -3 -6 -8 -7c-40 1 -144 2 -551 5c-7 2 -10 2 -11 9z" />
    <glyph glyph-name="a" unicode="a" horiz-adv-x="514" 
d="M39 92c-55 212 157 302 330 232c0 85 -6 241 -134 241c-48 0 -96 -32 -96 -86c0 -28 21 -34 40 -34c0 31 2 60 41 60c25 0 44 -17 44 -43c0 -49 -37 -68 -83 -68c-49 0 -93 28 -93 83c0 95 101 148 184 148c78 0 188 -45 188 -139c0 -76 19 -420 24 -461v-5
c-31 -4 -97 -15 -124 -14v71c-95 -104 -292 -125 -321 15zM139 177c0 -44 18 -99 71 -99c65 0 166 57 166 127c0 54 -67 93 -121 93c-75 0 -116 -50 -116 -121z" />
    <glyph glyph-name="b" unicode="b" horiz-adv-x="552" 
d="M242 -18l-142 -30c-12 638 -50 712 -70 780l147 20c-32 -52 -27 -158 -28 -244c37 29 85 48 142 48c165 0 231 -136 231 -265c0 -8 0 -17 -1 -25c-9 -121 -85 -244 -240 -244c-7 0 -41 1 -59 4c4 -11 17 -38 20 -44zM174 319c-6 -78 1 -231 125 -231c86 0 99 112 103 164
c5 71 -2 232 -117 232c-90 0 -108 -106 -111 -165z" />
    <glyph glyph-name="c" unicode="c" horiz-adv-x="523" 
d="M32 277c-13 146 72 322 250 322c97 0 172 -33 181 -135c0 -70 -24 -134 -112 -134c-34 0 -85 25 -85 68c0 23 20 50 47 50c51 0 43 -66 66 -66c32 0 33 30 31 53c-5 56 -48 99 -109 99c-168 0 -155 -461 6 -461c80 0 140 78 140 155c0 18 43 26 46 -9
c0 -116 -79 -198 -206 -198c-155 0 -243 116 -255 256z" />
    <glyph glyph-name="d" unicode="d" horiz-adv-x="563" 
d="M31 303c8 123 89 251 230 251c58 0 103 -19 136 -50c-1 66 -4 134 -9 205h145c-73 -439 -64 -568 -32 -688l-136 -7l5 37c-32 -22 -72 -35 -119 -35c-6 0 -38 1 -44 1c-120 34 -177 147 -177 261c0 8 0 17 1 25zM151 315c-6 -79 1 -232 118 -232c80 0 92 113 96 165
c5 72 -2 234 -109 234c-86 0 -102 -107 -105 -167z" />
    <glyph glyph-name="e" unicode="e" horiz-adv-x="475" 
d="M30 332c0 117 79 263 211 263c128 0 177 -121 187 -232l-287 -64c0 -65 12 -121 44 -178c45 -82 193 -66 195 41v4c-14 -17 -31 -21 -52 -21c-43 0 -71 23 -71 67c4 43 39 88 84 88h6c56 0 98 -34 98 -91c0 -99 -59 -200 -168 -200h-9c-176 0 -232 174 -238 323zM252 513
c-66 0 -105 -96 -105 -152l201 28c0 49 -40 124 -96 124z" />
    <glyph glyph-name="f" unicode="f" horiz-adv-x="518" 
d="M38 370l-8 90l56 6c0 17 -1 34 -1 51c0 211 40 349 228 349c115 0 187 -66 173 -184c-12 -98 -186 -129 -186 -16c0 88 71 104 116 34c20 72 -24 103 -92 103h-9c-122 -13 -133 -217 -135 -329l116 8l-20 -90l-94 8c4 -102 16 -292 23 -345l50 4l41 -100l-247 -25l1 99
l56 9c-3 121 -11 236 -16 340z" />
    <glyph glyph-name="g" unicode="g" horiz-adv-x="620" 
d="M35 -152c0 79 106 117 164 117c41 0 99 -18 99 -75c0 -62 -64 -80 -108 -80c-23 0 -37 4 -63 13c1 -132 313 -67 307 95c-6 163 -326 82 -398 82h-6l153 137c-106 61 -131 117 -131 174c0 137 182 209 300 217c-20 10 -38 27 -38 52c0 56 55 107 106 107
c44 0 87 -34 87 -83c0 -59 -91 -59 -125 -42c0 -10 3 -25 12 -28c139 -64 173 -133 173 -188c0 -218 -180 -222 -335 -222c-9 0 -83 -47 -88 -59c133 44 446 41 446 -171c0 -60 -41 -108 -87 -134c-91 -50 -468 -125 -468 88zM327 449c-174 0 -228 -251 -28 -251
c85 0 167 37 167 137c0 73 -77 114 -139 114z" />
    <glyph glyph-name="h" unicode="h" horiz-adv-x="547" 
d="M200 14l-153 1c78 584 24 705 -10 781l-7 17l169 -58c-6 -74 -11 -176 -15 -240c36 25 57 40 115 40c304 0 200 -318 200 -533v-17l-191 16c3 6 6 14 9 22c52 126 184 445 -16 445c-226 0 -104 -362 -101 -474z" />
    <glyph glyph-name="i" unicode="i" horiz-adv-x="275" 
d="M90 12c39 211 -7 325 -14 476h141c-39 -160 7 -323 14 -476h-141zM30 673c0 55 45 101 109 101s106 -46 106 -101s-42 -101 -106 -101s-109 46 -109 101z" />
    <glyph glyph-name="j" unicode="j" horiz-adv-x="371" 
d="M-201 -186c0 76 32 142 121 142c72 0 127 -47 127 -116c0 -87 -100 -110 -146 -41c-21 -71 37 -136 107 -136h10c140 13 142 266 142 363v8c0 83 -19 307 -27 370l-53 -4l-42 99l256 25l-1 -98l-58 -9c11 -451 106 -817 -215 -817c-119 0 -221 93 -221 214zM50 689
c0 47 44 87 107 87s104 -40 104 -87s-41 -87 -104 -87s-107 40 -107 87z" />
    <glyph glyph-name="k" unicode="k" horiz-adv-x="635" 
d="M191 322c-8 0 -12 -3 -12 -11c0 -102 2 -208 62 -295h-186c58 236 39 523 -25 757h162c-8 -90 -13 -96 -13 -385c10 -2 19 -3 29 -3c91 0 142 83 142 174c0 8 -1 15 -2 23h115c0 -7 1 -14 1 -20c0 -104 -60 -163 -162 -210c54 -27 106 -85 143 -126
c58 -65 107 -145 160 -216h-148c-104 66 -39 310 -266 312z" />
    <glyph glyph-name="l" unicode="l" horiz-adv-x="231" 
d="M96 0l-66 743l171 30c-50 -274 -70 -492 -5 -774z" />
    <glyph glyph-name="m" unicode="m" horiz-adv-x="672" 
d="M58 5c41 255 -13 480 -27 517c-1 2 0 4 0 4c17 0 85 -12 87 -16c-1 2 52 65 115 65c112 0 126 -139 131 -209c19 80 74 170 160 170c211 0 84 -459 30 -456l-64 4c70 74 62 316 10 316c-85 0 -116 -217 -124 -276c0 -2 -1 -5 -1 -7l-64 -11c2 72 1 113 -14 187
c-6 34 -37 122 -81 122c-37 0 -53 -76 -53 -104c0 -103 27 -211 57 -262c-161 -43 -162 -44 -162 -44z" />
    <glyph glyph-name="n" unicode="n" horiz-adv-x="504" 
d="M30 64c24 181 23 253 0 436l104 7l5 -50l11 12c42 43 67 69 141 69c238 0 200 -388 128 -565l-85 18c-2 -8 108 439 -78 439c-103 0 -104 -139 -104 -207v-13c8 -57 13 -115 33 -171l-154 22s-1 2 -1 3z" />
    <glyph glyph-name="o" unicode="o" horiz-adv-x="510" 
d="M30 278c0 211 93 300 258 300c124 0 176 -112 188 -221c3 -23 4 -45 4 -65c0 -390 -450 -355 -450 -14zM126 316c0 -244 254 -335 254 -4v11c0 236 -254 227 -254 -7z" />
    <glyph glyph-name="p" unicode="p" horiz-adv-x="452" 
d="M66 -198l1 1c0 41 23 429 -37 737l108 40l-8 -68c42 40 102 71 158 71c96 0 134 -131 134 -246c0 -117 -82 -204 -159 -204c-39 0 -86 15 -118 46l46 -357l-113 -25h-9c-2 2 -3 3 -3 5zM161 350c0 -68 12 -134 71 -134c58 0 85 51 85 124c0 66 -15 160 -69 160
c-50 0 -87 -62 -87 -150z" />
    <glyph glyph-name="q" unicode="q" horiz-adv-x="452" 
d="M178 -100v40l102 18l27 221c-32 -30 -75 -44 -118 -47h-9c-102 0 -161 106 -161 190c0 93 44 196 137 228c58 19 118 -13 163 -47c-2 22 -6 43 -8 65l111 -30c-32 -170 -41 -342 -41 -515v-53l70 15l15 -55l-85 2c1 -43 2 -86 5 -130c-50 3 -87 11 -125 20l14 98z
M290 345c0 54 -21 136 -86 136h-4c-64 -20 -70 -102 -70 -159c0 -48 28 -107 81 -107c3 0 6 1 9 1c59 2 70 67 70 116v13z" />
    <glyph glyph-name="r" unicode="r" horiz-adv-x="459" 
d="M208 4l-163 -16c11 0 43 263 -15 610l88 -6l4 -44c50 48 118 85 185 85c102 0 122 -99 122 -200c0 -147 -198 -140 -198 -15c0 59 34 92 98 92c16 0 24 -1 41 -6v2c-11 33 -55 48 -85 48c-261 0 -63 -564 -77 -550zM373 502c-1 0 -1 -3 0 -3c2 0 2 3 0 3z" />
    <glyph glyph-name="s" unicode="s" horiz-adv-x="524" 
d="M30 162c0 60 43 108 122 108c53 0 91 -39 91 -78c0 -29 -19 -68 -63 -68c-16 0 -31 5 -47 5c29 -100 228 -53 228 33c0 55 -100 103 -164 118c-91 21 -138 40 -138 127c0 99 87 161 208 169c202 13 301 -224 117 -255h-3c-45 0 -80 31 -80 67c0 40 29 60 77 60
c-27 151 -225 61 -225 -37c0 -109 341 -96 341 -250c0 -81 -107 -156 -210 -156c-137 0 -254 37 -254 157z" />
    <glyph glyph-name="t" unicode="t" horiz-adv-x="518" 
d="M46 340l-16 72l76 6c5 104 0 126 -10 334l142 -8l-40 -322l156 26l-22 -80l-134 -6c2 -112 11 -352 133 -365c77 0 131 39 111 111c-45 -70 -140 -48 -140 40c0 127 164 106 182 -10c19 -121 -40 -204 -155 -204c-216 0 -262 204 -227 420z" />
    <glyph glyph-name="u" unicode="u" horiz-adv-x="522" 
d="M409 28l-19 59c-155 -142 -324 -20 -330 174c-1 36 1 204 -30 235l164 18c3 -96 -126 -405 75 -405c190 0 88 323 45 414c54 10 103 13 160 13c-11 -109 -28 -241 18 -497z" />
    <glyph glyph-name="v" unicode="v" horiz-adv-x="484" 
d="M289 14l-91 -2c-168 496 -168 496 -167 496c28 0 129 24 152 34c51 -378 48 -381 54 -382c49 219 52 336 43 430c39 -11 123 -43 174 -52c-132 -349 -150 -432 -165 -524z" />
    <glyph glyph-name="w" unicode="w" horiz-adv-x="582" 
d="M135 -28c-203 26 -49 329 -49 535c0 20 -1 40 -5 58c138 -34 136 -38 134 -42c-81 -137 -139 -445 -61 -455c3 0 6 -1 9 -1c81 0 85 147 87 209v8l74 -2c0 -69 165 -543 70 179c-1 2 -6 10 155 39c-34 -12 -36 -249 -36 -325v-23c0 -90 -7 -163 -109 -163
c-69 0 -96 44 -120 104c-36 -55 -66 -122 -135 -122c-5 0 -9 0 -14 1z" />
    <glyph glyph-name="x" unicode="x" horiz-adv-x="562" 
d="M162 0l-132 47c22 15 90 132 186 283c-32 39 -114 130 -163 184l117 66c36 -80 70 -132 111 -171c62 110 69 124 79 144l123 -33c-74 -71 -106 -132 -151 -184c54 -86 153 -234 200 -316l-119 -28c-18 65 -96 216 -136 279c-49 -86 -77 -192 -115 -271z" />
    <glyph glyph-name="y" unicode="y" horiz-adv-x="457" 
d="M70 -52c0 109 182 93 182 10c0 -65 -33 -82 -80 -100c154 -115 196 275 148 400c4 -84 -74 -93 -111 -93c-165 0 -235 235 -126 368l123 -11c-73 -54 -124 -265 24 -265c126 0 59 235 38 301l153 38v-11c0 -98 21 -484 -19 -629c-44 -161 -332 -252 -332 -8z" />
    <glyph glyph-name="z" unicode="z" horiz-adv-x="597" 
d="M54 -11c-7 0 -9 3 -9 11l319 443s-2 2 -3 2c-56 0 -120 -11 -179 -11h-8c37 -11 64 -40 64 -85c0 -47 -39 -83 -79 -83c-114 0 -100 115 -105 203c-2 34 -13 68 -23 98c0 1 -1 3 -1 4c90 -46 372 -62 419 -38l56 -103l-2 -3c-8 -12 -15 -21 -292 -312
c78 27 138 -43 225 -47c-68 82 -17 146 48 146c54 0 83 -28 83 -91c0 -256 -407 6 -513 -134zM126 448c0 -6 0 -18 6 -18c7 0 25 2 31 8c-13 1 -25 10 -37 10z" />
    <glyph glyph-name="exclamdown" unicode="&#xa1;" horiz-adv-x="208" 
d="M110 842c14 0 38 -24 38 -51c0 -31 -16 -72 -40 -72c-19 0 -40 30 -40 58s23 65 42 65zM143 635l28 -544c4 -28 7 -58 7 -86c0 -12 -6 -15 -15 -15c-22 0 -77 2 -102 2c-2 0 -13 2 -16 3c-7 1 -15 5 -15 14c56 583 56 619 56 626c0 28 5 35 23 35c16 0 34 -4 34 -35z" />
    <glyph glyph-name="sterling" unicode="&#xa3;" horiz-adv-x="522" 
d="M148 34c-20 0 -40 0 -59 -7c-5 -1 -21 -8 -23 -9c-5 -2 -9 -10 -15 -10c-4 0 -6 2 -6 8v4c1 1 6 15 6 16c19 68 27 136 27 207v8l-39 4c-12 1 -8 29 -8 38c0 5 4 12 10 12h36c0 61 -8 108 -13 174c0 0 -1 15 -1 22c0 25 0 55 7 80c23 79 92 200 191 200
c52 0 121 -28 142 -86c12 -25 12 -54 19 -83c-9 -35 -26 -69 -63 -69c-69 0 -75 87 -37 121c6 6 23 3 23 15c-17 49 -64 61 -105 61c-89 0 -125 -88 -125 -175c0 -53 21 -94 37 -142c11 -36 16 -76 20 -112l2 -3c8 0 43 -1 50 -2c5 0 15 -1 16 -9c0 -1 2 -19 2 -24v-4
c0 -21 -61 -16 -72 -18c-2 -4 -3 -8 -4 -11c-7 -44 -21 -82 -30 -122c30 18 64 33 111 33c40 0 75 -15 112 -31l4 -2c15 -5 29 -15 48 -15c12 22 13 43 13 68c0 38 -13 72 -13 103c0 25 10 33 34 33c11 0 28 -6 32 -19l2 -7c7 -24 13 -48 13 -73c0 -105 -21 -155 -113 -190
c-24 -10 -45 -12 -72 -12c-28 0 -54 2 -81 10c-27 7 -52 18 -78 18z" />
    <glyph glyph-name="ordfeminine" unicode="&#xaa;" horiz-adv-x="367" 
d="M30 581c0 81 80 115 159 115c5 -1 29 -11 30 -2c0 75 -4 89 -6 94c-7 21 -33 26 -51 26s-48 -7 -49 -31c4 2 8 2 13 2c17 0 24 -18 24 -33c0 -26 -27 -46 -51 -46c-29 0 -55 20 -55 50c0 69 73 107 138 107c73 0 120 -50 127 -122c0 -58 -3 -112 2 -169c1 -8 1 -16 6 -23
c4 -5 20 -14 20 -21c0 -3 0 -5 -4 -7c-11 -2 -22 -4 -35 -4c-30 0 -58 23 -71 47c-6 -3 -17 -19 -22 -23c-26 -23 -55 -38 -90 -38c-50 0 -85 25 -85 78zM130 609c0 -17 0 -43 19 -43c25 0 54 20 66 42v37c0 5 -24 8 -29 8c-31 0 -54 -6 -56 -44z" />
    <glyph glyph-name="guillemotleft" unicode="&#xab;" horiz-adv-x="530" 
d="M30 297c101 53 191 135 278 222v-103l-159 -112c38 -37 94 -73 159 -107v-67c-107 70 -243 156 -278 167zM222 297c101 53 191 135 278 222v-103l-159 -112c38 -37 94 -73 159 -107v-67c-107 70 -243 156 -278 167z" />
    <glyph glyph-name="ordmasculine" unicode="&#xba;" horiz-adv-x="346" 
d="M30 672c0 74 53 209 143 209c59 0 127 -25 138 -91c6 -35 5 -71 3 -110c-7 -119 -155 -181 -244 -102c-26 22 -40 62 -40 94zM123 669c0 -37 7 -75 51 -75c64 1 80 231 13 231c-2 0 -4 0 -7 -1c-42 -2 -53 -102 -57 -142v-13z" />
    <glyph glyph-name="guillemotright" unicode="&#xbb;" horiz-adv-x="530" 
d="M308 297c-35 -11 -171 -97 -278 -167v67c65 34 121 70 159 107l-159 112v103c87 -87 177 -169 278 -222zM500 297c-35 -11 -171 -97 -278 -167v67c65 34 121 70 159 107l-159 112v103c87 -87 177 -169 278 -222z" />
    <glyph glyph-name="questiondown" unicode="&#xbf;" horiz-adv-x="509" 
d="M339 763c0 -39 -27 -76 -64 -76c-23 0 -50 34 -50 59c0 39 22 79 58 79c29 0 56 -31 56 -62zM312 622c0 -59 13 -122 -15 -180c-39 -97 -105 -174 -105 -285c0 -60 40 -90 90 -90c76 0 140 57 140 145c-39 -14 -96 20 -96 68c0 53 18 90 68 90c67 0 85 -55 85 -116
c0 -26 -7 -59 -17 -83c-38 -94 -123 -177 -235 -177c-85 0 -150 32 -186 123c-7 16 -11 34 -11 51c0 134 141 236 217 340c25 35 31 94 35 137c14 18 27 -11 30 -23z" />
    <glyph glyph-name="Agrave" unicode="&#xc0;" 
d="M359 269l-154 -20l-63 -257l-112 30c40 85 95 383 84 580l-43 -6l-22 95c0 3 53 12 428 57l16 -76l-62 -13c-2 -72 16 -441 114 -635l-132 -24zM209 589l3 -218c16 -4 112 8 128 10v4c0 73 -5 144 -5 219c-36 0 -82 -7 -115 -12c-2 0 -10 -2 -11 -3zM373 779
c-6 -7 -14 -10 -23 -10c-49 0 -156 75 -156 121c0 20 29 36 46 36c25 0 46 -28 60 -46c23 -27 59 -74 73 -101z" />
    <glyph glyph-name="Aacute" unicode="&#xc1;" 
d="M359 269l-154 -20l-63 -257l-112 30c40 85 95 383 84 580l-43 -6l-22 95c0 3 53 12 428 57l16 -76l-62 -13c-2 -72 16 -441 114 -635l-132 -24zM209 589l3 -218c16 -4 112 8 128 10v4c0 73 -5 144 -5 219c-36 0 -82 -7 -115 -12c-2 0 -10 -2 -11 -3zM148 761
c14 27 50 74 73 101c14 18 35 46 60 46c17 0 46 -16 46 -36c0 -46 -107 -121 -156 -121c-9 0 -17 3 -23 10z" />
    <glyph glyph-name="Acircumflex" unicode="&#xc2;" 
d="M359 269l-154 -20l-63 -257l-112 30c40 85 95 383 84 580l-43 -6l-22 95c0 3 53 12 428 57l16 -76l-62 -13c-2 -72 16 -441 114 -635l-132 -24zM209 589l3 -218c16 -4 112 8 128 10v4c0 73 -5 144 -5 219c-36 0 -82 -7 -115 -12c-2 0 -10 -2 -11 -3zM177 746l-91 25
c-3 1 127 92 147 167c10 -1 44 0 51 -10c37 -55 108 -148 132 -163c-85 -2 -86 -2 -87 -2l-3 1c-19 42 -40 67 -70 113c-16 -44 -43 -87 -70 -126c-2 -2 -5 -8 -9 -5z" />
    <glyph glyph-name="Atilde" unicode="&#xc3;" 
d="M359 269l-154 -20l-63 -257l-112 30c40 85 95 383 84 580l-43 -6l-22 95c0 3 53 12 428 57l16 -76l-62 -13c-2 -72 16 -441 114 -635l-132 -24zM209 589l3 -218c16 -4 112 8 128 10v4c0 73 -5 144 -5 219c-36 0 -82 -7 -115 -12c-2 0 -10 -2 -11 -3zM166 777l-68 -9
c-1 0 -16 143 84 154h6c29 0 50 -27 71 -54l3 -4c51 -41 79 12 82 51c57 6 57 5 57 5c0 -41 -45 -146 -105 -146c-44 0 -79 76 -110 76c-25 0 -33 -50 -20 -73z" />
    <glyph glyph-name="Adieresis" unicode="&#xc4;" 
d="M359 269l-154 -20l-63 -257l-112 30c40 85 95 383 84 580l-43 -6l-22 95c0 3 53 12 428 57l16 -76l-62 -13c-2 -72 16 -441 114 -635l-132 -24zM209 589l3 -218c16 -4 112 8 128 10v4c0 73 -5 144 -5 219c-36 0 -82 -7 -115 -12c-2 0 -10 -2 -11 -3zM290 843
c0 34 24 53 55 53c27 0 62 -21 62 -56c-7 -33 -27 -54 -60 -54c-29 7 -57 20 -57 57zM96 828c0 30 22 65 54 65c31 0 54 -30 54 -63c0 -31 -22 -53 -51 -53c-27 0 -57 20 -57 51z" />
    <glyph glyph-name="Aring" unicode="&#xc5;" 
d="M359 269l-154 -20l-63 -257l-112 30c40 85 95 383 84 580l-43 -6l-22 95c0 3 53 12 428 57l16 -76l-62 -13c-2 -72 16 -441 114 -635l-132 -24zM209 589l3 -218c16 -4 112 8 128 10v4c0 73 -5 144 -5 219c-36 0 -82 -7 -115 -12c-2 0 -10 -2 -11 -3zM98 885
c0 66 51 107 115 127c85 18 156 -55 156 -140c0 -42 -27 -78 -68 -97c-88 -40 -203 15 -203 110zM176 889c0 -35 31 -71 69 -71c37 0 57 36 57 67c0 54 -61 106 -105 62c-16 -18 -21 -35 -21 -58z" />
    <glyph glyph-name="AE" unicode="&#xc6;" horiz-adv-x="828" 
d="M313 -2c28 84 40 176 43 270l-151 -19l-63 -257l-112 30c40 85 95 383 84 580l-43 -6l-22 95c4 -17 371 -25 651 25l-9 -132h-9c-73 0 -181 6 -216 -3c-7 -39 -18 -147 -17 -182c79 -23 143 -13 200 6l6 -104c-69 21 -139 9 -201 -7c-22 -43 -6 -145 9 -192h16
c85 0 255 14 319 52l-11 -128c-125 0 -349 -28 -474 -28zM209 589l3 -218c16 -4 112 8 128 10v4c0 73 -5 144 -5 219c-36 0 -82 -7 -115 -12c-2 0 -10 -2 -11 -3z" />
    <glyph glyph-name="Ccedilla" unicode="&#xc7;" horiz-adv-x="642" 
d="M220 -198c0 31 13 52 50 52c24 0 45 -15 45 -39c0 -18 -14 -32 -33 -38c43 -22 72 25 72 65c0 69 -44 69 -108 69c-3 0 -5 0 -7 3c0 18 9 76 7 96c-140 35 -216 160 -216 303c0 195 142 387 363 387c116 0 214 -41 214 -162c0 -86 -65 -162 -156 -162
c-96 0 -136 134 -48 134c52 0 56 -22 63 -74h8c47 0 55 39 55 72c0 76 -61 103 -133 103c-164 0 -227 -172 -227 -301c0 -120 44 -250 204 -250c127 0 127 240 211 174c7 -10 28 -25 28 -40c-42 -94 -141 -193 -286 -193l-18 -2c0 -16 -1 -32 -1 -48c0 -1 1 -5 1 -6
c49 -12 113 -6 113 -84c0 -101 -201 -166 -201 -59z" />
    <glyph glyph-name="Egrave" unicode="&#xc8;" horiz-adv-x="545" 
d="M30 38c62 185 46 405 31 605l-3 41l-2 31c121 0 236 9 360 28l-8 -119h-9c-73 0 -181 6 -216 -3c-4 -15 -13 -87 -15 -103c-1 -12 -3 -42 -2 -42c79 -23 143 -13 200 6l6 -104c-69 21 -139 9 -201 -7c-22 -43 -6 -182 9 -229h16c85 0 255 14 319 52l-11 -128
c-125 0 -349 -28 -474 -28zM350 775c-6 -7 -14 -10 -23 -10c-49 0 -156 75 -156 121c0 20 29 36 46 36c25 0 46 -28 60 -46c23 -27 59 -74 73 -101z" />
    <glyph glyph-name="Eacute" unicode="&#xc9;" horiz-adv-x="545" 
d="M30 38c62 185 46 405 31 605l-3 41l-2 31c121 0 236 9 360 28l-8 -119h-9c-73 0 -181 6 -216 -3c-4 -15 -13 -87 -15 -103c-1 -12 -3 -42 -2 -42c79 -23 143 -13 200 6l6 -104c-69 21 -139 9 -201 -7c-22 -43 -6 -182 9 -229h16c85 0 255 14 319 52l-11 -128
c-125 0 -349 -28 -474 -28zM109 773c14 27 50 74 73 101c14 18 35 46 60 46c17 0 46 -16 46 -36c0 -46 -107 -121 -156 -121c-9 0 -17 3 -23 10z" />
    <glyph glyph-name="Ecircumflex" unicode="&#xca;" horiz-adv-x="545" 
d="M30 38c62 185 46 405 31 605l-3 41l-2 31c121 0 236 9 360 28l-8 -119h-9c-73 0 -181 6 -216 -3c-4 -15 -13 -87 -15 -103c-1 -12 -3 -42 -2 -42c79 -23 143 -13 200 6l6 -104c-69 21 -139 9 -201 -7c-22 -43 -6 -182 9 -229h16c85 0 255 14 319 52l-11 -128
c-125 0 -349 -28 -474 -28zM156 792l-91 25c-3 1 127 92 147 167c10 -1 44 0 51 -10c37 -55 108 -148 132 -163c-85 -2 -86 -2 -87 -2l-3 1c-19 42 -40 67 -70 113c-16 -44 -43 -87 -70 -126c-2 -2 -5 -8 -9 -5z" />
    <glyph glyph-name="Edieresis" unicode="&#xcb;" horiz-adv-x="545" 
d="M30 38c62 185 46 405 31 605l-3 41l-2 31c121 0 236 9 360 28l-8 -119h-9c-73 0 -181 6 -216 -3c-4 -15 -13 -87 -15 -103c-1 -12 -3 -42 -2 -42c79 -23 143 -13 200 6l6 -104c-69 21 -139 9 -201 -7c-22 -43 -6 -182 9 -229h16c85 0 255 14 319 52l-11 -128
c-125 0 -349 -28 -474 -28zM279 837c0 34 24 53 55 53c27 0 62 -21 62 -56c-7 -33 -27 -54 -60 -54c-29 7 -57 20 -57 57zM85 822c0 30 22 65 54 65c31 0 54 -30 54 -63c0 -31 -22 -53 -51 -53c-27 0 -57 20 -57 51z" />
    <glyph glyph-name="Igrave" unicode="&#xcc;" horiz-adv-x="234" 
d="M30 690l150 30c-21 -4 -32 -620 24 -678l-154 -34c27 53 22 594 -20 682zM207 837c-6 -7 -14 -10 -23 -10c-49 0 -156 75 -156 121c0 20 29 36 46 36c25 0 46 -28 60 -46c23 -27 59 -74 73 -101z" />
    <glyph glyph-name="Iacute" unicode="&#xcd;" horiz-adv-x="234" 
d="M30 690l150 30c-21 -4 -32 -620 24 -678l-154 -34c27 53 22 594 -20 682zM28 837c14 27 50 74 73 101c14 18 35 46 60 46c17 0 46 -16 46 -36c0 -46 -107 -121 -156 -121c-9 0 -17 3 -23 10z" />
    <glyph glyph-name="Icircumflex" unicode="&#xce;" horiz-adv-x="234" 
d="M30 690l150 30c-21 -4 -32 -620 24 -678l-154 -34c27 53 22 594 -20 682zM45 836l-91 25c-3 1 127 92 147 167c10 -1 44 0 51 -10c37 -55 108 -148 132 -163c-85 -2 -86 -2 -87 -2l-3 1c-19 42 -40 67 -70 113c-16 -44 -43 -87 -70 -126c-2 -2 -5 -8 -9 -5z" />
    <glyph glyph-name="Idieresis" unicode="&#xcf;" horiz-adv-x="234" 
d="M30 690l150 30c-21 -4 -32 -620 24 -678l-154 -34c27 53 22 594 -20 682zM156 899c0 34 24 53 55 53c27 0 62 -21 62 -56c-7 -33 -27 -54 -60 -54c-29 7 -57 20 -57 57zM-38 884c0 30 22 65 54 65c31 0 54 -30 54 -63c0 -31 -22 -53 -51 -53c-27 0 -57 20 -57 51z" />
    <glyph glyph-name="Eth" unicode="&#xd0;" horiz-adv-x="651" 
d="M58 372c3 57 5 65 4 67c5 -3 35 -5 75 -5c-2 84 -6 157 -14 175h-93l5 83l28 6c111 24 230 50 343 21c130 -33 215 -150 215 -273c0 -289 -214 -451 -489 -451c-7 0 -31 1 -45 5l-8 113l57 8c1 30 3 146 2 258c-27 -1 -53 -3 -80 -7zM224 129h16c195 0 256 215 256 332
c0 101 -76 156 -182 156c-34 0 -56 -1 -94 -4v-179c50 1 101 3 137 6l-3 -69l-24 2c-37 3 -74 6 -110 7c0 -78 2 -154 4 -235v-16z" />
    <glyph glyph-name="Ntilde" unicode="&#xd1;" horiz-adv-x="587" 
d="M178 76l-148 30c36 156 81 350 56 577h119c29 -121 163 -342 243 -415c0 133 -10 326 -10 456v21c26 5 74 15 107 15c-32 -234 -2 -480 12 -712h-92c-44 65 -281 370 -274 364c-9 -145 -27 -198 -13 -336zM218 757l-68 -9c-1 0 -16 143 84 154h6c29 0 50 -27 71 -54l3 -4
c51 -41 79 12 82 51c57 6 57 5 57 5c0 -41 -45 -146 -105 -146c-44 0 -79 76 -110 76c-25 0 -33 -50 -20 -73z" />
    <glyph glyph-name="Ograve" unicode="&#xd2;" horiz-adv-x="603" 
d="M31 495c10 133 108 273 278 273c201 0 273 -169 262 -318c-10 -133 -97 -268 -273 -268c-8 0 -46 1 -54 1c-156 40 -223 179 -213 312zM176 508c-7 -86 2 -253 143 -253c97 0 112 123 116 180c6 78 -2 254 -132 254c-103 0 -123 -116 -127 -181zM391 837
c-6 -7 -14 -10 -23 -10c-49 0 -156 75 -156 121c0 20 29 36 46 36c25 0 46 -28 60 -46c23 -27 59 -74 73 -101z" />
    <glyph glyph-name="Oacute" unicode="&#xd3;" horiz-adv-x="603" 
d="M31 495c10 133 108 273 278 273c201 0 273 -169 262 -318c-10 -133 -97 -268 -273 -268c-8 0 -46 1 -54 1c-156 40 -223 179 -213 312zM176 508c-7 -86 2 -253 143 -253c97 0 112 123 116 180c6 78 -2 254 -132 254c-103 0 -123 -116 -127 -181zM212 837
c14 27 50 74 73 101c14 18 35 46 60 46c17 0 46 -16 46 -36c0 -46 -107 -121 -156 -121c-9 0 -17 3 -23 10z" />
    <glyph glyph-name="Ocircumflex" unicode="&#xd4;" horiz-adv-x="603" 
d="M31 495c10 133 108 273 278 273c201 0 273 -169 262 -318c-10 -133 -97 -268 -273 -268c-8 0 -46 1 -54 1c-156 40 -223 179 -213 312zM176 508c-7 -86 2 -253 143 -253c97 0 112 123 116 180c6 78 -2 254 -132 254c-103 0 -123 -116 -127 -181zM229 836l-91 25
c-3 1 127 92 147 167c10 -1 44 0 51 -10c37 -55 108 -148 132 -163c-85 -2 -86 -2 -87 -2l-3 1c-19 42 -40 67 -70 113c-16 -44 -43 -87 -70 -126c-2 -2 -5 -8 -9 -5z" />
    <glyph glyph-name="Otilde" unicode="&#xd5;" horiz-adv-x="603" 
d="M31 495c10 133 108 273 278 273c201 0 273 -169 262 -318c-10 -133 -97 -268 -273 -268c-8 0 -46 1 -54 1c-156 40 -223 179 -213 312zM176 508c-7 -86 2 -253 143 -253c97 0 112 123 116 180c6 78 -2 254 -132 254c-103 0 -123 -116 -127 -181zM226 843l-68 -9
c-1 0 -16 143 84 154h6c29 0 50 -27 71 -54l3 -4c51 -41 79 12 82 51c57 6 57 5 57 5c0 -41 -45 -146 -105 -146c-44 0 -79 76 -110 76c-25 0 -33 -50 -20 -73z" />
    <glyph glyph-name="Odieresis" unicode="&#xd6;" horiz-adv-x="603" 
d="M31 495c10 133 108 273 278 273c201 0 273 -169 262 -318c-10 -133 -97 -268 -273 -268c-8 0 -46 1 -54 1c-156 40 -223 179 -213 312zM176 508c-7 -86 2 -253 143 -253c97 0 112 123 116 180c6 78 -2 254 -132 254c-103 0 -123 -116 -127 -181zM340 899
c0 34 24 53 55 53c27 0 62 -21 62 -56c-7 -33 -27 -54 -60 -54c-29 7 -57 20 -57 57zM146 884c0 30 22 65 54 65c31 0 54 -30 54 -63c0 -31 -22 -53 -51 -53c-27 0 -57 20 -57 51z" />
    <glyph glyph-name="Oslash" unicode="&#xd8;" horiz-adv-x="602" 
d="M244 183l-12 -51h-44l16 64c-127 52 -182 178 -173 299c10 133 108 273 278 273c3 0 6 -1 9 -1l10 55h70l-15 -63c145 -37 197 -180 188 -309c-10 -133 -97 -268 -273 -268c-8 0 -45 1 -54 1zM435 435c5 63 0 192 -72 238l-99 -408c16 -6 34 -10 55 -10
c97 0 112 123 116 180zM176 508c-5 -61 -2 -162 50 -216c26 123 54 274 77 397c-103 0 -123 -116 -127 -181z" />
    <glyph glyph-name="Ugrave" unicode="&#xd9;" horiz-adv-x="577" 
d="M30 692l149 21c-3 -112 -132 -475 94 -475c213 0 124 395 81 501c62 13 128 16 191 16c-6 -215 56 -584 -256 -584c-163 0 -235 118 -239 245c-2 43 14 240 -20 276zM378 837c-6 -7 -14 -10 -23 -10c-49 0 -156 75 -156 121c0 20 29 36 46 36c25 0 46 -28 60 -46
c23 -27 59 -74 73 -101z" />
    <glyph glyph-name="Uacute" unicode="&#xda;" horiz-adv-x="577" 
d="M30 692l149 21c-3 -112 -132 -475 94 -475c213 0 124 395 81 501c62 13 128 16 191 16c-6 -215 56 -584 -256 -584c-163 0 -235 118 -239 245c-2 43 14 240 -20 276zM199 837c14 27 50 74 73 101c14 18 35 46 60 46c17 0 46 -16 46 -36c0 -46 -107 -121 -156 -121
c-9 0 -17 3 -23 10z" />
    <glyph glyph-name="Ucircumflex" unicode="&#xdb;" horiz-adv-x="577" 
d="M30 692l149 21c-3 -112 -132 -475 94 -475c213 0 124 395 81 501c62 13 128 16 191 16c-6 -215 56 -584 -256 -584c-163 0 -235 118 -239 245c-2 43 14 240 -20 276zM216 836l-91 25c-3 1 127 92 147 167c10 -1 44 0 51 -10c37 -55 108 -148 132 -163
c-85 -2 -86 -2 -87 -2l-3 1c-19 42 -40 67 -70 113c-16 -44 -43 -87 -70 -126c-2 -2 -5 -8 -9 -5z" />
    <glyph glyph-name="Udieresis" unicode="&#xdc;" horiz-adv-x="577" 
d="M30 692l149 21c-3 -112 -132 -475 94 -475c213 0 124 395 81 501c62 13 128 16 191 16c-6 -215 56 -584 -256 -584c-163 0 -235 118 -239 245c-2 43 14 240 -20 276zM327 899c0 34 24 53 55 53c27 0 62 -21 62 -56c-7 -33 -27 -54 -60 -54c-29 7 -57 20 -57 57zM133 884
c0 30 22 65 54 65c31 0 54 -30 54 -63c0 -31 -22 -53 -51 -53c-27 0 -57 20 -57 51z" />
    <glyph glyph-name="Yacute" unicode="&#xdd;" horiz-adv-x="595" 
d="M30 158c0 74 20 113 89 113c60 0 95 -39 95 -112c0 -76 -58 -68 -65 -86c171 -123 151 145 -79 605l176 22v-1c-2 -14 -17 -137 79 -435c54 165 93 283 101 496l139 13l-162 -553c-37 -129 -99 -241 -222 -241c-84 0 -151 79 -151 179zM202 745c14 27 50 74 73 101
c14 18 35 46 60 46c17 0 46 -16 46 -36c0 -46 -107 -121 -156 -121c-9 0 -17 3 -23 10z" />
    <glyph glyph-name="Thorn" unicode="&#xde;" horiz-adv-x="474" 
d="M30 824l158 -10c-7 -2 -14 -87 -16 -200c32 20 73 30 122 30c97 0 138 -84 147 -167c3 -17 3 -34 3 -49c0 -199 -161 -251 -265 -185c6 -103 17 -183 35 -201l-154 -34c27 53 12 728 -30 816zM366 452c0 163 -166 171 -194 35c0 -30 0 -60 1 -90c30 -145 193 -180 193 46
v9z" />
    <glyph glyph-name="germandbls" unicode="&#xdf;" horiz-adv-x="599" 
d="M240 186c0 71 20 132 75 132c45 0 79 -45 79 -107c0 -79 -63 -100 -90 -37c94 -341 264 295 17 295c-202 0 -132 -474 -69 -572l-149 -31c-12 670 -52 792 -73 864c175 37 253 46 319 46c116 0 166 -60 176 -118c3 -12 4 -24 4 -34c0 -54 -28 -93 -69 -117
c77 -52 109 -148 109 -241c0 -8 0 -18 -1 -26c-7 -94 -72 -248 -190 -248c-74 0 -138 84 -138 194zM174 636l7 -102c19 -32 254 -20 254 100v5c0 126 -261 122 -261 -3z" />
    <glyph glyph-name="agrave" unicode="&#xe0;" horiz-adv-x="514" 
d="M39 92c-55 212 157 302 330 232c0 85 -6 241 -134 241c-48 0 -96 -32 -96 -86c0 -28 21 -34 40 -34c0 31 2 60 41 60c25 0 44 -17 44 -43c0 -49 -37 -68 -83 -68c-49 0 -93 28 -93 83c0 95 101 148 184 148c78 0 188 -45 188 -139c0 -76 19 -420 24 -461v-5
c-31 -4 -97 -15 -124 -14v71c-95 -104 -292 -125 -321 15zM139 177c0 -44 18 -99 71 -99c65 0 166 57 166 127c0 54 -67 93 -121 93c-75 0 -116 -50 -116 -121zM346 670c-6 -7 -14 -10 -23 -10c-49 0 -156 75 -156 121c0 20 29 36 46 36c25 0 46 -28 60 -46
c23 -27 59 -74 73 -101z" />
    <glyph glyph-name="aacute" unicode="&#xe1;" horiz-adv-x="514" 
d="M39 92c-55 212 157 302 330 232c0 85 -6 241 -134 241c-48 0 -96 -32 -96 -86c0 -28 21 -34 40 -34c0 31 2 60 41 60c25 0 44 -17 44 -43c0 -49 -37 -68 -83 -68c-49 0 -93 28 -93 83c0 95 101 148 184 148c78 0 188 -45 188 -139c0 -76 19 -420 24 -461v-5
c-31 -4 -97 -15 -124 -14v71c-95 -104 -292 -125 -321 15zM139 177c0 -44 18 -99 71 -99c65 0 166 57 166 127c0 54 -67 93 -121 93c-75 0 -116 -50 -116 -121zM155 666c14 27 50 74 73 101c14 18 35 46 60 46c17 0 46 -16 46 -36c0 -46 -107 -121 -156 -121
c-9 0 -17 3 -23 10z" />
    <glyph glyph-name="acircumflex" unicode="&#xe2;" horiz-adv-x="514" 
d="M39 92c-55 212 157 302 330 232c0 85 -6 241 -134 241c-48 0 -96 -32 -96 -86c0 -28 21 -34 40 -34c0 31 2 60 41 60c25 0 44 -17 44 -43c0 -49 -37 -68 -83 -68c-49 0 -93 28 -93 83c0 95 101 148 184 148c78 0 188 -45 188 -139c0 -76 19 -420 24 -461v-5
c-31 -4 -97 -15 -124 -14v71c-95 -104 -292 -125 -321 15zM139 177c0 -44 18 -99 71 -99c65 0 166 57 166 127c0 54 -67 93 -121 93c-75 0 -116 -50 -116 -121zM184 637l-91 25c-3 1 127 92 147 167c10 -1 44 0 51 -10c37 -55 108 -148 132 -163c-85 -2 -86 -2 -87 -2l-3 1
c-19 42 -40 67 -70 113c-16 -44 -43 -87 -70 -126c-2 -2 -5 -8 -9 -5z" />
    <glyph glyph-name="atilde" unicode="&#xe3;" horiz-adv-x="514" 
d="M39 92c-55 212 157 302 330 232c0 85 -6 241 -134 241c-48 0 -96 -32 -96 -86c0 -28 21 -34 40 -34c0 31 2 60 41 60c25 0 44 -17 44 -43c0 -49 -37 -68 -83 -68c-49 0 -93 28 -93 83c0 95 101 148 184 148c78 0 188 -45 188 -139c0 -76 19 -420 24 -461v-5
c-31 -4 -97 -15 -124 -14v71c-95 -104 -292 -125 -321 15zM139 177c0 -44 18 -99 71 -99c65 0 166 57 166 127c0 54 -67 93 -121 93c-75 0 -116 -50 -116 -121zM183 660l-68 -9c-1 0 -16 143 84 154h6c29 0 50 -27 71 -54l3 -4c51 -41 79 12 82 51c57 6 57 5 57 5
c0 -41 -45 -146 -105 -146c-44 0 -79 76 -110 76c-25 0 -33 -50 -20 -73z" />
    <glyph glyph-name="adieresis" unicode="&#xe4;" horiz-adv-x="514" 
d="M39 92c-55 212 157 302 330 232c0 85 -6 241 -134 241c-48 0 -96 -32 -96 -86c0 -28 21 -34 40 -34c0 31 2 60 41 60c25 0 44 -17 44 -43c0 -49 -37 -68 -83 -68c-49 0 -93 28 -93 83c0 95 101 148 184 148c78 0 188 -45 188 -139c0 -76 19 -420 24 -461v-5
c-31 -4 -97 -15 -124 -14v71c-95 -104 -292 -125 -321 15zM139 177c0 -44 18 -99 71 -99c65 0 166 57 166 127c0 54 -67 93 -121 93c-75 0 -116 -50 -116 -121zM295 724c0 34 24 53 55 53c27 0 62 -21 62 -56c-7 -33 -27 -54 -60 -54c-29 7 -57 20 -57 57zM101 709
c0 30 22 65 54 65c31 0 54 -30 54 -63c0 -31 -22 -53 -51 -53c-27 0 -57 20 -57 51z" />
    <glyph glyph-name="aring" unicode="&#xe5;" horiz-adv-x="514" 
d="M39 92c-55 212 157 302 330 232c0 85 -6 241 -134 241c-48 0 -96 -32 -96 -86c0 -28 21 -34 40 -34c0 31 2 60 41 60c25 0 44 -17 44 -43c0 -49 -37 -68 -83 -68c-49 0 -93 28 -93 83c0 95 101 148 184 148c78 0 188 -45 188 -139c0 -76 19 -420 24 -461v-5
c-31 -4 -97 -15 -124 -14v71c-95 -104 -292 -125 -321 15zM139 177c0 -44 18 -99 71 -99c65 0 166 57 166 127c0 54 -67 93 -121 93c-75 0 -116 -50 -116 -121zM121 778c0 66 51 107 115 127c85 18 156 -55 156 -140c0 -42 -27 -78 -68 -97c-88 -40 -203 15 -203 110z
M199 782c0 -35 31 -71 69 -71c37 0 57 36 57 67c0 54 -61 106 -105 62c-16 -18 -21 -35 -21 -58z" />
    <glyph glyph-name="ae" unicode="&#xe6;" horiz-adv-x="816" 
d="M371 326c0 7 0 14 1 21c-2 87 -17 218 -134 218c-48 0 -96 -32 -96 -86c0 -28 21 -34 40 -34c0 31 2 60 41 60c25 0 44 -17 44 -43c0 -49 -37 -68 -83 -68c-49 0 -93 28 -93 83c0 95 101 148 184 148c64 0 149 -30 178 -93c34 34 77 57 129 57c128 0 177 -121 187 -232
l-287 -64c0 -65 12 -121 44 -178c45 -82 193 -66 195 41v4c-14 -17 -31 -21 -52 -21c-43 0 -71 23 -71 67c4 43 39 88 84 88h6c56 0 98 -34 98 -91c0 -99 -59 -200 -168 -200h-9c-97 0 -158 53 -194 126l-52 -52c-95 -104 -292 -125 -325 14c-51 212 160 302 333 235z
M142 177c0 -44 18 -99 71 -99c65 0 166 57 166 127c0 54 -67 93 -121 93c-75 0 -116 -50 -116 -121zM593 507c-66 0 -105 -96 -105 -152l201 28c0 49 -40 124 -96 124z" />
    <glyph glyph-name="ccedilla" unicode="&#xe7;" horiz-adv-x="523" 
d="M175 -154c0 31 13 52 50 52c24 0 45 -15 45 -39c0 -18 -14 -32 -33 -38c43 -22 72 25 72 65c0 69 -44 69 -108 69c-3 0 -5 0 -7 3c0 14 5 50 7 76c-102 35 -160 131 -169 243c-1 10 -1 19 -1 29c0 139 85 293 251 293c97 0 172 -33 181 -135c0 -70 -24 -134 -112 -134
c-34 0 -85 25 -85 68c0 23 20 50 47 50c51 0 43 -66 66 -66c32 0 33 30 31 53c-5 56 -48 99 -109 99c-168 0 -155 -461 6 -461c80 0 140 78 140 155c0 18 43 26 46 -9c0 -116 -79 -198 -206 -198c-9 0 -17 0 -25 1v-27c0 -1 1 -5 1 -6c49 -12 113 -6 113 -84
c0 -101 -201 -166 -201 -59z" />
    <glyph glyph-name="egrave" unicode="&#xe8;" horiz-adv-x="475" 
d="M30 332c0 117 79 263 211 263c128 0 177 -121 187 -232l-287 -64c0 -65 12 -121 44 -178c45 -82 193 -66 195 41v4c-14 -17 -31 -21 -52 -21c-43 0 -71 23 -71 67c4 43 39 88 84 88h6c56 0 98 -34 98 -91c0 -99 -59 -200 -168 -200h-9c-176 0 -232 174 -238 323zM252 513
c-66 0 -105 -96 -105 -152l201 28c0 49 -40 124 -96 124zM327 638c-6 -7 -14 -10 -23 -10c-49 0 -156 75 -156 121c0 20 29 36 46 36c25 0 46 -28 60 -46c23 -27 59 -74 73 -101z" />
    <glyph glyph-name="eacute" unicode="&#xe9;" horiz-adv-x="475" 
d="M30 332c0 117 79 263 211 263c128 0 177 -121 187 -232l-287 -64c0 -65 12 -121 44 -178c45 -82 193 -66 195 41v4c-14 -17 -31 -21 -52 -21c-43 0 -71 23 -71 67c4 43 39 88 84 88h6c56 0 98 -34 98 -91c0 -99 -59 -200 -168 -200h-9c-176 0 -232 174 -238 323zM252 513
c-66 0 -105 -96 -105 -152l201 28c0 49 -40 124 -96 124zM148 638c14 27 50 74 73 101c14 18 35 46 60 46c17 0 46 -16 46 -36c0 -46 -107 -121 -156 -121c-9 0 -17 3 -23 10z" />
    <glyph glyph-name="ecircumflex" unicode="&#xea;" horiz-adv-x="475" 
d="M30 332c0 117 79 263 211 263c128 0 177 -121 187 -232l-287 -64c0 -65 12 -121 44 -178c45 -82 193 -66 195 41v4c-14 -17 -31 -21 -52 -21c-43 0 -71 23 -71 67c4 43 39 88 84 88h6c56 0 98 -34 98 -91c0 -99 -59 -200 -168 -200h-9c-176 0 -232 174 -238 323zM252 513
c-66 0 -105 -96 -105 -152l201 28c0 49 -40 124 -96 124zM165 637l-91 25c-3 1 127 92 147 167c10 -1 44 0 51 -10c37 -55 108 -148 132 -163c-85 -2 -86 -2 -87 -2l-3 1c-19 42 -40 67 -70 113c-16 -44 -43 -87 -70 -126c-2 -2 -5 -8 -9 -5z" />
    <glyph glyph-name="edieresis" unicode="&#xeb;" horiz-adv-x="475" 
d="M30 332c0 117 79 263 211 263c128 0 177 -121 187 -232l-287 -64c0 -65 12 -121 44 -178c45 -82 193 -66 195 41v4c-14 -17 -31 -21 -52 -21c-43 0 -71 23 -71 67c4 43 39 88 84 88h6c56 0 98 -34 98 -91c0 -99 -59 -200 -168 -200h-9c-176 0 -232 174 -238 323zM252 513
c-66 0 -105 -96 -105 -152l201 28c0 49 -40 124 -96 124zM276 700c0 34 24 53 55 53c27 0 62 -21 62 -56c-7 -33 -27 -54 -60 -54c-29 7 -57 20 -57 57zM82 685c0 30 22 65 54 65c31 0 54 -30 54 -63c0 -31 -22 -53 -51 -53c-27 0 -57 20 -57 51z" />
    <glyph glyph-name="igrave" unicode="&#xec;" horiz-adv-x="275" 
d="M90 12c39 211 -7 325 -14 476h141c-39 -160 7 -323 14 -476h-141zM227 638c-6 -7 -14 -10 -23 -10c-49 0 -156 75 -156 121c0 20 29 36 46 36c25 0 46 -28 60 -46c23 -27 59 -74 73 -101z" />
    <glyph glyph-name="iacute" unicode="&#xed;" horiz-adv-x="275" 
d="M90 12c39 211 -7 325 -14 476h141c-39 -160 7 -323 14 -476h-141zM48 638c14 27 50 74 73 101c14 18 35 46 60 46c17 0 46 -16 46 -36c0 -46 -107 -121 -156 -121c-9 0 -17 3 -23 10z" />
    <glyph glyph-name="icircumflex" unicode="&#xee;" horiz-adv-x="275" 
d="M90 12c39 211 -7 325 -14 476h141c-39 -160 7 -323 14 -476h-141zM65 637l-91 25c-3 1 127 92 147 167c10 -1 44 0 51 -10c37 -55 108 -148 132 -163c-85 -2 -86 -2 -87 -2l-3 1c-19 42 -40 67 -70 113c-16 -44 -43 -87 -70 -126c-2 -2 -5 -8 -9 -5z" />
    <glyph glyph-name="idieresis" unicode="&#xef;" horiz-adv-x="275" 
d="M90 12c39 211 -7 325 -14 476h141c-39 -160 7 -323 14 -476h-141zM176 700c0 34 24 53 55 53c27 0 62 -21 62 -56c-7 -33 -27 -54 -60 -54c-29 7 -57 20 -57 57zM-18 685c0 30 22 65 54 65c31 0 54 -30 54 -63c0 -31 -22 -53 -51 -53c-27 0 -57 20 -57 51z" />
    <glyph glyph-name="eth" unicode="&#xf0;" horiz-adv-x="530" 
d="M65 175c0 7 -1 14 -1 21c0 95 38 173 124 207c18 7 39 7 58 7h6c54 0 109 -27 145 -72c3 -3 17 -27 20 -30c0 -1 2 -2 2 -3c-7 117 -15 258 -104 356c-3 1 -6 2 -8 2c-8 0 -27 -86 -40 -86c-8 0 -44 3 -45 18v4l28 77l-1 5c-55 13 -139 -23 -139 -81c0 -5 39 -14 41 -57
v-4c0 -34 -25 -72 -59 -72c-32 0 -59 21 -62 56c22 168 95 215 211 215c9 0 18 -1 27 -1c3 2 4 4 4 7c7 20 13 50 26 67c3 4 10 3 13 3c9 0 42 -14 42 -26l-21 -61c56 -24 160 -169 167 -285c1 -12 1 -25 1 -38c0 -173 -64 -417 -255 -417c-102 0 -174 75 -180 188zM174 160
c4 -64 29 -96 92 -96c73 0 111 53 111 124v13c-4 62 -51 126 -113 126c-83 0 -94 -96 -90 -167z" />
    <glyph glyph-name="ntilde" unicode="&#xf1;" horiz-adv-x="504" 
d="M30 64c24 181 23 253 0 436l104 7l5 -50l11 12c42 43 67 69 141 69c238 0 200 -388 128 -565l-85 18c-2 -8 108 439 -78 439c-103 0 -104 -139 -104 -207v-13c8 -57 13 -115 33 -171l-154 22s-1 2 -1 3zM154 580l-68 -9c-1 0 -16 143 84 154h6c29 0 50 -27 71 -54l3 -4
c51 -41 79 12 82 51c57 6 57 5 57 5c0 -41 -45 -146 -105 -146c-44 0 -79 76 -110 76c-25 0 -33 -50 -20 -73z" />
    <glyph glyph-name="ograve" unicode="&#xf2;" horiz-adv-x="510" 
d="M30 278c0 211 93 300 258 300c124 0 176 -112 188 -221c3 -23 4 -45 4 -65c0 -390 -450 -355 -450 -14zM126 316c0 -244 254 -335 254 -4v11c0 236 -254 227 -254 -7zM344 638c-6 -7 -14 -10 -23 -10c-49 0 -156 75 -156 121c0 20 29 36 46 36c25 0 46 -28 60 -46
c23 -27 59 -74 73 -101z" />
    <glyph glyph-name="oacute" unicode="&#xf3;" horiz-adv-x="510" 
d="M30 278c0 211 93 300 258 300c124 0 176 -112 188 -221c3 -23 4 -45 4 -65c0 -390 -450 -355 -450 -14zM126 316c0 -244 254 -335 254 -4v11c0 236 -254 227 -254 -7zM165 638c14 27 50 74 73 101c14 18 35 46 60 46c17 0 46 -16 46 -36c0 -46 -107 -121 -156 -121
c-9 0 -17 3 -23 10z" />
    <glyph glyph-name="ocircumflex" unicode="&#xf4;" horiz-adv-x="510" 
d="M30 278c0 211 93 300 258 300c124 0 176 -112 188 -221c3 -23 4 -45 4 -65c0 -390 -450 -355 -450 -14zM126 316c0 -244 254 -335 254 -4v11c0 236 -254 227 -254 -7zM182 637l-91 25c-3 1 127 92 147 167c10 -1 44 0 51 -10c37 -55 108 -148 132 -163
c-85 -2 -86 -2 -87 -2l-3 1c-19 42 -40 67 -70 113c-16 -44 -43 -87 -70 -126c-2 -2 -5 -8 -9 -5z" />
    <glyph glyph-name="otilde" unicode="&#xf5;" horiz-adv-x="510" 
d="M30 278c0 211 93 300 258 300c124 0 176 -112 188 -221c3 -23 4 -45 4 -65c0 -390 -450 -355 -450 -14zM126 316c0 -244 254 -335 254 -4v11c0 236 -254 227 -254 -7zM179 644l-68 -9c-1 0 -16 143 84 154h6c29 0 50 -27 71 -54l3 -4c51 -41 79 12 82 51c57 6 57 5 57 5
c0 -41 -45 -146 -105 -146c-44 0 -79 76 -110 76c-25 0 -33 -50 -20 -73z" />
    <glyph glyph-name="odieresis" unicode="&#xf6;" horiz-adv-x="510" 
d="M30 278c0 211 93 300 258 300c124 0 176 -112 188 -221c3 -23 4 -45 4 -65c0 -390 -450 -355 -450 -14zM126 316c0 -244 254 -335 254 -4v11c0 236 -254 227 -254 -7zM293 700c0 34 24 53 55 53c27 0 62 -21 62 -56c-7 -33 -27 -54 -60 -54c-29 7 -57 20 -57 57zM99 685
c0 30 22 65 54 65c31 0 54 -30 54 -63c0 -31 -22 -53 -51 -53c-27 0 -57 20 -57 51z" />
    <glyph glyph-name="oslash" unicode="&#xf8;" horiz-adv-x="510" 
d="M196 -65l-39 8c5 4 13 36 25 83c-84 33 -152 119 -152 252c0 209 91 298 253 300l17 104l60 -4v-1l-24 -106c90 -25 129 -121 140 -214c3 -23 4 -45 4 -65c0 -219 -142 -304 -266 -276zM141 328c0 -89 28 -157 63 -193c22 113 47 256 66 368c-59 18 -129 -41 -129 -175z
M354 332c0 65 -16 111 -40 140l-79 -359c57 -25 119 30 119 208v11z" />
    <glyph glyph-name="ugrave" unicode="&#xf9;" horiz-adv-x="522" 
d="M409 28l-19 59c-155 -142 -324 -20 -330 174c-1 36 1 204 -30 235l164 18c3 -96 -126 -405 75 -405c190 0 88 323 45 414c54 10 103 13 160 13c-11 -109 -28 -241 18 -497zM350 638c-6 -7 -14 -10 -23 -10c-49 0 -156 75 -156 121c0 20 29 36 46 36c25 0 46 -28 60 -46
c23 -27 59 -74 73 -101z" />
    <glyph glyph-name="uacute" unicode="&#xfa;" horiz-adv-x="522" 
d="M409 28l-19 59c-155 -142 -324 -20 -330 174c-1 36 1 204 -30 235l164 18c3 -96 -126 -405 75 -405c190 0 88 323 45 414c54 10 103 13 160 13c-11 -109 -28 -241 18 -497zM171 638c14 27 50 74 73 101c14 18 35 46 60 46c17 0 46 -16 46 -36c0 -46 -107 -121 -156 -121
c-9 0 -17 3 -23 10z" />
    <glyph glyph-name="ucircumflex" unicode="&#xfb;" horiz-adv-x="522" 
d="M409 28l-19 59c-155 -142 -324 -20 -330 174c-1 36 1 204 -30 235l164 18c3 -96 -126 -405 75 -405c190 0 88 323 45 414c54 10 103 13 160 13c-11 -109 -28 -241 18 -497zM188 637l-91 25c-3 1 127 92 147 167c10 -1 44 0 51 -10c37 -55 108 -148 132 -163
c-85 -2 -86 -2 -87 -2l-3 1c-19 42 -40 67 -70 113c-16 -44 -43 -87 -70 -126c-2 -2 -5 -8 -9 -5z" />
    <glyph glyph-name="udieresis" unicode="&#xfc;" horiz-adv-x="522" 
d="M409 28l-19 59c-155 -142 -324 -20 -330 174c-1 36 1 204 -30 235l164 18c3 -96 -126 -405 75 -405c190 0 88 323 45 414c54 10 103 13 160 13c-11 -109 -28 -241 18 -497zM299 700c0 34 24 53 55 53c27 0 62 -21 62 -56c-7 -33 -27 -54 -60 -54c-29 7 -57 20 -57 57z
M105 685c0 30 22 65 54 65c31 0 54 -30 54 -63c0 -31 -22 -53 -51 -53c-27 0 -57 20 -57 51z" />
    <glyph glyph-name="yacute" unicode="&#xfd;" horiz-adv-x="457" 
d="M70 -52c0 109 182 93 182 10c0 -65 -33 -82 -80 -100c154 -115 196 275 148 400c4 -84 -74 -93 -111 -93c-165 0 -235 235 -126 368l123 -11c-73 -54 -124 -265 24 -265c126 0 59 235 38 301l153 38v-11c0 -98 21 -484 -19 -629c-44 -161 -332 -252 -332 -8zM139 638
c14 27 50 74 73 101c14 18 35 46 60 46c17 0 46 -16 46 -36c0 -46 -107 -121 -156 -121c-9 0 -17 3 -23 10z" />
    <glyph glyph-name="thorn" unicode="&#xfe;" horiz-adv-x="382" 
d="M96 0l-66 743l171 30c-17 -90 -30 -174 -38 -257c14 8 29 13 46 13c59 0 127 -25 138 -91c6 -35 5 -71 3 -110c-6 -96 -103 -155 -187 -133c6 -63 17 -127 33 -196zM159 317c0 -37 7 -75 51 -75c64 1 80 231 13 231c-2 0 -4 0 -7 -1c-42 -2 -53 -102 -57 -142v-13z" />
    <glyph glyph-name="ydieresis" unicode="&#xff;" horiz-adv-x="457" 
d="M70 -52c0 109 182 93 182 10c0 -65 -33 -82 -80 -100c154 -115 196 275 148 400c4 -84 -74 -93 -111 -93c-165 0 -235 235 -126 368l123 -11c-73 -54 -124 -265 24 -265c126 0 59 235 38 301l153 38v-11c0 -98 21 -484 -19 -629c-44 -161 -332 -252 -332 -8zM261 662
c0 34 24 53 55 53c27 0 62 -21 62 -56c-7 -33 -27 -54 -60 -54c-29 7 -57 20 -57 57zM67 647c0 30 22 65 54 65c31 0 54 -30 54 -63c0 -31 -22 -53 -51 -53c-27 0 -57 20 -57 51z" />
    <glyph glyph-name="dotlessi" unicode="&#x131;" horiz-adv-x="275" 
d="M90 12c39 211 -7 325 -14 476h141c-39 -160 7 -323 14 -476h-141z" />
    <glyph glyph-name="OE" unicode="&#x152;" horiz-adv-x="888" 
d="M373 70c14 42 24 86 31 131c-31 -12 -67 -19 -106 -19c-8 0 -46 1 -54 1c-156 40 -223 179 -213 312s108 273 278 273c42 0 78 -8 109 -21c114 1 223 10 341 28l-8 -119h-9c-73 0 -181 6 -216 -3c-4 -15 -13 -87 -15 -103c-1 -12 -3 -42 -2 -42c79 -23 143 -13 200 6
l6 -104c-69 21 -139 9 -201 -7c-22 -43 -6 -182 9 -229h16c85 0 255 14 319 52l-11 -128c-125 0 -349 -28 -474 -28zM176 508c-7 -86 2 -253 143 -253c53 0 82 36 97 79c4 95 -2 192 -8 286c-20 40 -52 69 -105 69c-103 0 -123 -116 -127 -181z" />
    <glyph glyph-name="oe" unicode="&#x153;" horiz-adv-x="715" 
d="M288 578c26 0 83 -13 106 -41c25 15 54 24 87 24c128 0 177 -121 187 -232l-287 -64c0 -65 12 -121 44 -178c45 -82 193 -66 195 41v4c-14 -17 -31 -21 -52 -21c-43 0 -71 23 -71 67c4 43 39 88 84 88h6c56 0 98 -34 98 -91c0 -99 -59 -200 -168 -200h-9
c-66 0 -114 24 -150 62c-134 -74 -328 16 -328 241c0 211 93 300 258 300zM270 298c0 57 19 121 53 172c-75 62 -197 8 -197 -154c0 -161 109 -255 184 -207c-26 57 -38 125 -40 189zM492 479c-66 0 -105 -96 -105 -152l201 28c0 49 -40 124 -96 124z" />
    <glyph glyph-name="Ydieresis" unicode="&#x178;" horiz-adv-x="595" 
d="M30 158c0 74 20 113 89 113c60 0 95 -39 95 -112c0 -76 -58 -68 -65 -86c171 -123 151 145 -79 605l176 22v-1c-2 -14 -17 -137 79 -435c54 165 93 283 101 496l139 13l-162 -553c-37 -129 -99 -241 -222 -241c-84 0 -151 79 -151 179zM342 843c0 34 24 53 55 53
c27 0 62 -21 62 -56c-7 -33 -27 -54 -60 -54c-29 7 -57 20 -57 57zM148 828c0 30 22 65 54 65c31 0 54 -30 54 -63c0 -31 -22 -53 -51 -53c-27 0 -57 20 -57 51z" />
    <glyph glyph-name="florin" unicode="&#x192;" horiz-adv-x="518" 
d="M38 370l-8 90l56 6c0 17 -1 34 -1 51c0 211 40 349 228 349c115 0 187 -66 173 -184c-12 -98 -186 -129 -186 -16c0 88 71 104 116 34c20 72 -24 103 -92 103h-9c-122 -13 -133 -217 -135 -329l116 8l-20 -90l-94 8c4 -102 16 -292 23 -345l50 4l41 -100l-247 -25l1 99
l56 9c-3 121 -11 236 -16 340z" />
    <glyph glyph-name="quoteleft" unicode="&#x2018;" horiz-adv-x="154" 
d="M68 868l46 -3c-4 -20 5 -318 10 -318c-7 0 -82 9 -93 9c0 0 -1 1 -1 3c0 29 38 251 38 302v7z" />
    <glyph glyph-name="quoteright" unicode="&#x2019;" horiz-adv-x="154" 
d="M86 547l-46 3c4 20 -5 318 -10 318c7 0 82 -9 93 -9c0 0 1 -1 1 -3c0 -29 -38 -251 -38 -302v-7z" />
    <glyph glyph-name="quotesinglbase" unicode="&#x201a;" horiz-adv-x="154" 
d="M86 -75l-46 3c4 20 -5 318 -10 318c7 0 82 -9 93 -9c0 0 1 -1 1 -3c0 -29 -38 -251 -38 -302v-7z" />
    <glyph glyph-name="quotedblleft" unicode="&#x201c;" horiz-adv-x="302" 
d="M68 864l46 -3c-4 -20 5 -318 10 -318c-7 0 -82 9 -93 9c0 0 -1 1 -1 3c0 29 38 251 38 302v7zM216 868l46 -3c-4 -20 5 -318 10 -318c-7 0 -82 9 -93 9c0 0 -1 1 -1 3c0 29 38 251 38 302v7z" />
    <glyph glyph-name="quotedblright" unicode="&#x201d;" horiz-adv-x="302" 
d="M234 547l-46 3c4 20 -5 318 -10 318c7 0 82 -9 93 -9c0 0 1 -1 1 -3c0 -29 -38 -251 -38 -302v-7zM86 543l-46 3c4 20 -5 318 -10 318c7 0 82 -9 93 -9c0 0 1 -1 1 -3c0 -29 -38 -251 -38 -302v-7z" />
    <glyph glyph-name="quotedblbase" unicode="&#x201e;" horiz-adv-x="302" 
d="M234 -85l-46 3c4 20 -5 318 -10 318c7 0 82 -9 93 -9c0 0 1 -1 1 -3c0 -29 -38 -251 -38 -302v-7zM86 -89l-46 3c4 20 -5 318 -10 318c7 0 82 -9 93 -9c0 0 1 -1 1 -3c0 -29 -38 -251 -38 -302v-7z" />
    <glyph glyph-name="ellipsis" unicode="&#x2026;" horiz-adv-x="591" 
d="M30 40c0 37 32 74 75 74c37 0 62 -27 62 -59c0 -27 -18 -49 -45 -57c-2 -1 -17 -7 -19 -7h-4c-27 0 -48 8 -62 30c-3 6 -7 12 -7 19zM227 40c0 37 32 74 75 74c37 0 62 -27 62 -59c0 -27 -18 -49 -45 -57c-2 -1 -17 -7 -19 -7h-4c-27 0 -48 8 -62 30c-3 6 -7 12 -7 19z
M424 40c0 37 32 74 75 74c37 0 62 -27 62 -59c0 -27 -18 -49 -45 -57c-2 -1 -17 -7 -19 -7h-4c-27 0 -48 8 -62 30c-3 6 -7 12 -7 19z" />
    <glyph glyph-name="guilsinglleft" unicode="&#x2039;" horiz-adv-x="338" 
d="M30 297c101 53 191 135 278 222v-103l-159 -112c38 -37 94 -73 159 -107v-67c-107 70 -243 156 -278 167z" />
    <glyph glyph-name="guilsinglright" unicode="&#x203a;" horiz-adv-x="338" 
d="M308 297c-35 -11 -171 -97 -278 -167v67c65 34 121 70 159 107l-159 112v103c87 -87 177 -169 278 -222z" />
    <glyph glyph-name="Euro" unicode="&#x20ac;" horiz-adv-x="611" 
d="M52 463l-6 59c3 -5 27 -7 61 -9c40 138 131 278 281 278c31 0 98 -12 98 -57c0 -13 -14 -36 -30 -36c-25 0 -47 30 -80 30c-55 0 -117 -65 -136 -216c76 2 150 5 171 9l5 -58c-72 5 -131 7 -180 8c-2 -33 -1 -69 1 -109c42 2 76 4 89 7l4 -56c-34 3 -63 4 -90 6
c2 -28 6 -57 11 -88c4 -41 31 -170 83 -170c97 0 144 56 153 89c1 2 4 18 4 21c1 7 4 60 4 67c3 26 12 34 35 34c15 0 51 -20 51 -55c0 -143 -133 -218 -250 -218c-165 0 -239 175 -247 319l-46 -5h-3l-5 57c3 -5 24 -7 54 -9c1 17 2 35 2 49c2 18 5 37 9 57l-39 -4h-4z" />
    </font>
</defs>
</svg>
